<?xml version="1.0" encoding="UTF-8" standalone="no"?>
<!-- Created with Inkscape (http://www.inkscape.org/) -->

<svg
   xmlns:dc="http://purl.org/dc/elements/1.1/"
   xmlns:cc="http://creativecommons.org/ns#"
   xmlns:rdf="http://www.w3.org/1999/02/22-rdf-syntax-ns#"
   xmlns:svg="http://www.w3.org/2000/svg"
   xmlns="http://www.w3.org/2000/svg"
   xmlns:sodipodi="http://sodipodi.sourceforge.net/DTD/sodipodi-0.dtd"
   xmlns:inkscape="http://www.inkscape.org/namespaces/inkscape"
   width="210mm"
   height="297mm"
   id="svg2"
   version="1.1"
   inkscape:version="0.48.1 "
   sodipodi:docname="processes_and_communication.svg">
  <title
     id="title4588">Processes&amp;Communication</title>
  <defs
     id="defs4" />
  <sodipodi:namedview
     id="base"
     pagecolor="#ffffff"
     bordercolor="#666666"
     borderopacity="1.0"
     inkscape:pageopacity="0.0"
     inkscape:pageshadow="2"
     inkscape:zoom="1"
     inkscape:cx="373.474"
     inkscape:cy="736.42111"
     inkscape:document-units="px"
     inkscape:current-layer="layer1"
     showgrid="false"
     inkscape:object-nodes="false"
     showguides="true"
     inkscape:guide-bbox="true"
     inkscape:window-width="1366"
     inkscape:window-height="716"
     inkscape:window-x="-4"
     inkscape:window-y="-4"
     inkscape:window-maximized="1">
    <sodipodi:guide
       orientation="1,0"
       position="23.422912,957.95291"
       id="guide4017" />
  </sodipodi:namedview>
  <metadata
     id="metadata7">
    <rdf:RDF>
      <cc:Work
         rdf:about="">
        <dc:format>image/svg+xml</dc:format>
        <dc:type
           rdf:resource="http://purl.org/dc/dcmitype/StillImage" />
        <dc:title>Processes&amp;Communication</dc:title>
      </cc:Work>
    </rdf:RDF>
  </metadata>
  <g
     inkscape:label="Ebene 1"
     inkscape:groupmode="layer"
     id="layer1">
    <rect
       style="opacity:0.66000001;fill:none;stroke:#000000;stroke-width:2;stroke-linecap:butt;stroke-linejoin:round;stroke-miterlimit:4;stroke-opacity:1;stroke-dasharray:none;stroke-dashoffset:0"
       id="rect3031"
       width="258"
       height="460.62955"
       x="59.801029"
       y="142.41676"
       rx="0.074511841"
       ry="0.075000003" />
    <rect
       ry="0.075000003"
       rx="0.074511841"
       y="142.41676"
       x="427.11182"
       height="460.62955"
       width="258"
       id="rect3801"
       style="opacity:0.66000001;fill:none;stroke:#000000;stroke-width:2;stroke-linecap:butt;stroke-linejoin:round;stroke-miterlimit:4;stroke-opacity:1;stroke-dasharray:none;stroke-dashoffset:0" />
    <g
       id="g3977"
       transform="translate(-5,-119)">
      <rect
         ry="0.075000003"
         rx="0.074511841"
         y="175.63751"
         x="121.5"
         height="1"
         width="148"
         id="rect3979"
         style="opacity:0.66000001;fill:none;stroke:none" />
      <rect
         style="opacity:0.66000001;fill:#000000;fill-opacity:1;stroke:none"
         id="rect3981"
         width="148"
         height="1"
         x="121.5"
         y="205.63718"
         rx="0.074511841"
         ry="0.075000003" />
    </g>
    <path
       style="opacity:0.2;fill:#000000;fill-opacity:1;stroke:none"
       d="M 370.28125 132.875 L 370.28125 688.28125 C 370.28125 688.32285 370.30245 688.375 370.34375 688.375 L 374.84375 688.375 C 374.88505 688.375 374.90625 688.32275 374.90625 688.28125 L 374.90625 132.875 L 370.28125 132.875 z "
       id="path4145" />
    <path
       style="opacity:0.2;fill:#000000;fill-opacity:1;stroke:none"
       d="M 335.6875 75.71875 C 335.6462 75.71875 335.625 75.7397 335.625 75.78125 L 335.625 105.625 C 335.625 105.6666 335.6462 105.71875 335.6875 105.71875 C 335.6875 105.71875 370.28125 105.7187 370.28125 125.71875 L 370.28125 132.875 L 374.90625 132.875 L 374.90625 125.71875 C 374.90625 105.71755 409.46875 105.71875 409.46875 105.71875 C 409.51005 105.71875 409.5625 105.6665 409.5625 105.625 L 409.5625 75.78125 C 409.5625 75.7397 409.50995 75.71875 409.46875 75.71875 L 335.6875 75.71875 z M 339.71875 83.4375 L 341.625 83.4375 L 341.625 97.75 L 339.71875 97.75 L 339.71875 83.4375 z M 357.9375 83.75 L 357.9375 87.375 L 359.6875 87.375 L 359.6875 88.75 L 357.9375 88.75 L 357.9375 94.8125 C 357.9375 95.313805 357.96945 95.638023 358.03125 95.78125 C 358.09305 95.924481 358.17252 96.040366 358.3125 96.125 C 358.45247 96.20964 358.67708 96.250002 358.9375 96.25 C 359.13281 96.250002 359.36848 96.23307 359.6875 96.1875 L 359.9375 97.71875 C 359.4427 97.822917 359.01562 97.875 358.625 97.875 C 357.98698 97.875 357.47656 97.79557 357.125 97.59375 C 356.77344 97.391927 356.54948 97.110027 356.40625 96.78125 C 356.26302 96.452475 356.1875 95.773439 356.1875 94.71875 L 356.1875 88.75 L 354.875 88.75 L 354.875 87.375 L 356.1875 87.375 L 356.1875 84.8125 L 357.9375 83.75 z M 403.5625 83.75 L 403.5625 87.375 L 405.3125 87.375 L 405.3125 88.75 L 403.5625 88.75 L 403.5625 94.8125 C 403.5625 95.313805 403.59445 95.638023 403.65625 95.78125 C 403.71805 95.924481 403.79752 96.040366 403.9375 96.125 C 404.07747 96.20964 404.30208 96.250002 404.5625 96.25 C 404.75781 96.250002 404.99348 96.23307 405.3125 96.1875 L 405.5625 97.71875 C 405.0677 97.822917 404.64062 97.875 404.25 97.875 C 403.61198 97.875 403.10156 97.79557 402.75 97.59375 C 402.39844 97.391927 402.17448 97.110027 402.03125 96.78125 C 401.88802 96.452475 401.8125 95.773439 401.8125 94.71875 L 401.8125 88.75 L 400.5 88.75 L 400.5 87.375 L 401.8125 87.375 L 401.8125 84.8125 L 403.5625 83.75 z M 349.09375 87.15625 C 349.26302 87.13845 349.4139 87.156251 349.59375 87.15625 C 350.21874 87.156261 350.81965 87.24415 351.34375 87.46875 C 351.86783 87.693369 352.23957 88.010426 352.5 88.375 C 352.76041 88.739592 352.95832 89.154957 353.0625 89.65625 C 353.1276 89.981779 353.15625 90.561205 353.15625 91.375 L 353.15625 97.75 L 351.40625 97.75 L 351.40625 91.4375 C 351.40624 90.721361 351.32425 90.198575 351.1875 89.84375 C 351.05077 89.488941 350.81705 89.180347 350.46875 88.96875 C 350.12044 88.75717 349.71874 88.656259 349.25 88.65625 C 348.5013 88.656259 347.85612 88.899748 347.3125 89.375 C 346.76888 89.850268 346.46875 90.765632 346.46875 92.09375 L 346.46875 97.75 L 344.71875 97.75 L 344.71875 87.375 L 346.3125 87.375 L 346.3125 88.84375 C 346.979 87.846851 347.90885 87.28087 349.09375 87.15625 z M 365.65625 87.15625 C 367.04296 87.156261 368.18359 87.6185 369.0625 88.5625 C 369.9414 89.506519 370.37499 90.819017 370.375 92.53125 C 370.37499 92.635422 370.382 92.791672 370.375 93 L 362.625 93 C 362.6901 94.139327 363.01432 95.019534 363.59375 95.625 C 364.17317 96.23047 364.91536 96.531251 365.78125 96.53125 C 366.42577 96.531251 366.95051 96.369793 367.40625 96.03125 C 367.86197 95.69271 368.23306 95.14844 368.5 94.40625 L 370.3125 94.625 C 370.02603 95.6862 369.49348 96.507814 368.71875 97.09375 C 367.944 97.679688 366.95442 97.96875 365.75 97.96875 C 364.23307 97.96875 363.04492 97.527995 362.15625 96.59375 C 361.26758 95.659507 360.8125 94.342451 360.8125 92.65625 C 360.8125 90.911465 361.25781 89.5573 362.15625 88.59375 C 363.05468 87.630218 364.22395 87.156261 365.65625 87.15625 z M 376.34375 87.15625 C 376.93619 87.156261 377.54426 87.341156 378.15625 87.71875 L 377.53125 89.34375 C 377.10156 89.089852 376.67968 88.968759 376.25 88.96875 C 375.86588 88.968759 375.52474 89.081389 375.21875 89.3125 C 374.91276 89.543628 374.6927 89.871102 374.5625 90.28125 C 374.36718 90.906257 374.28125 91.570319 374.28125 92.3125 L 374.28125 97.75 L 372.53125 97.75 L 372.53125 87.375 L 374.09375 87.375 L 374.09375 88.9375 C 374.49739 88.201832 374.87695 87.734385 375.21875 87.5 C 375.56054 87.265635 375.93359 87.156261 376.34375 87.15625 z M 383.5625 87.15625 C 383.73177 87.13845 383.9139 87.156251 384.09375 87.15625 C 384.71874 87.156261 385.2884 87.24415 385.8125 87.46875 C 386.33658 87.693369 386.73957 88.010426 387 88.375 C 387.26041 88.739592 387.42707 89.154957 387.53125 89.65625 C 387.59635 89.981779 387.65624 90.561205 387.65625 91.375 L 387.65625 97.75 L 385.875 97.75 L 385.875 91.4375 C 385.87499 90.721361 385.8242 90.198575 385.6875 89.84375 C 385.55077 89.488941 385.31705 89.180347 384.96875 88.96875 C 384.62044 88.75717 384.18749 88.656259 383.71875 88.65625 C 382.97005 88.656259 382.32487 88.899748 381.78125 89.375 C 381.23763 89.850268 380.96875 90.765632 380.96875 92.09375 L 380.96875 97.75 L 379.21875 97.75 L 379.21875 87.375 L 380.8125 87.375 L 380.8125 88.84375 C 381.479 87.846851 382.3776 87.28087 383.5625 87.15625 z M 394.59375 87.15625 C 395.98046 87.156261 397.12109 87.6185 398 88.5625 C 398.8789 89.506519 399.31249 90.819017 399.3125 92.53125 C 399.31249 92.635422 399.3195 92.791672 399.3125 93 L 391.59375 93 C 391.65885 94.139327 391.95182 95.019534 392.53125 95.625 C 393.11067 96.23047 393.85286 96.531251 394.71875 96.53125 C 395.36327 96.531251 395.91926 96.369793 396.375 96.03125 C 396.83072 95.69271 397.17056 95.14844 397.4375 94.40625 L 399.25 94.625 C 398.96353 95.6862 398.46223 96.507814 397.6875 97.09375 C 396.91275 97.679688 395.92317 97.96875 394.71875 97.96875 C 393.20182 97.96875 391.98242 97.527995 391.09375 96.59375 C 390.20508 95.659507 389.75 94.342451 389.75 92.65625 C 389.75 90.911465 390.22656 89.5573 391.125 88.59375 C 392.02343 87.630218 393.16145 87.156261 394.59375 87.15625 z M 365.6875 88.59375 C 364.8802 88.593759 364.20638 88.865894 363.65625 89.40625 C 363.10612 89.946622 362.77734 90.657559 362.71875 91.5625 L 368.53125 91.5625 C 368.45315 90.690111 368.20833 90.029956 367.84375 89.59375 C 367.28385 88.916675 366.57942 88.593759 365.6875 88.59375 z M 394.625 88.59375 C 393.8177 88.593759 393.14388 88.865894 392.59375 89.40625 C 392.04362 89.946622 391.74609 90.657559 391.6875 91.5625 L 397.46875 91.5625 C 397.39065 90.690111 397.17708 90.029956 396.8125 89.59375 C 396.2526 88.916675 395.51692 88.593759 394.625 88.59375 z "
       id="path4137" />
    <rect
       style="opacity:0.2;fill:#000000;fill-opacity:1;fill-rule:nonzero;stroke:none"
       id="rect3998"
       width="50.911686"
       height="30"
       x="24.04163"
       y="91.809647"
       rx="0.074511841"
       ry="0.075000003" />
    <text
       xml:space="preserve"
       style="font-size:20px;font-style:normal;font-weight:normal;line-height:125%;letter-spacing:0px;word-spacing:0px;fill:#000000;fill-opacity:1;stroke:none;font-family:Sans"
       x="30.434973"
       y="113.85066"
       id="text4000"
       sodipodi:linespacing="125%"><tspan
         sodipodi:role="line"
         id="tspan4002"
         x="30.434973"
         y="113.85066">Port</tspan></text>
    <g
       id="g4055"
       transform="translate(-5.8019408,-0.5000038)">
      <rect
         style="opacity:0.66000001;fill:none;stroke:#000000;stroke-width:0.99999994;stroke-miterlimit:4;stroke-opacity:1;stroke-dasharray:none"
         id="rect3929"
         width="149"
         height="82.386574"
         x="120.99999"
         y="176.13751"
         rx="0.074511841"
         ry="0.075000003" />
      <g
         id="g3973">
        <rect
           ry="0.075000003"
           rx="0.074511841"
           y="175.63751"
           x="121.5"
           height="1"
           width="148"
           id="rect3935"
           style="opacity:0.66000001;fill:none;stroke:none" />
        <rect
           style="opacity:0.66000001;fill:#000000;fill-opacity:1;stroke:none"
           id="rect3956"
           width="148"
           height="1"
           x="121.5"
           y="205.63718"
           rx="0.074511841"
           ry="0.075000003" />
      </g>
      <text
         sodipodi:linespacing="125%"
         id="text3940"
         y="198.20766"
         x="154.85059"
         style="font-size:20px;font-style:normal;font-weight:normal;line-height:125%;letter-spacing:0px;word-spacing:0px;fill:#000000;fill-opacity:1;stroke:none;font-family:Sans"
         xml:space="preserve"><tspan
           y="198.20766"
           x="154.85059"
           id="tspan3942"
           sodipodi:role="line">Process1</tspan></text>
    </g>
    <g
       id="g4176"
       transform="translate(0,0.50000359)">
      <g
         id="g4167">
        <rect
           style="opacity:0.594;fill:none;stroke:#000000;stroke-width:0.99999994;stroke-miterlimit:4;stroke-opacity:1;stroke-dasharray:none"
           id="rect4087"
           width="149"
           height="82.386574"
           x="-630.20819"
           y="-257.52408"
           rx="0.074511841"
           ry="0.075000003"
           transform="scale(-1,-1)" />
        <g
           style="opacity:0.9"
           transform="translate(360.208,51.386901)"
           id="g4109">
          <g
             id="g4089"
             transform="matrix(-1,0,0,-1,391,382.27469)">
            <rect
               style="opacity:0.66000001;fill:none;stroke:none"
               id="rect4091"
               width="148"
               height="1"
               x="121.5"
               y="175.63751"
               rx="0.074511841"
               ry="0.075000003" />
            <rect
               ry="0.075000003"
               rx="0.074511841"
               y="205.63718"
               x="121.5"
               height="1"
               width="148"
               id="rect4093"
               style="opacity:0.66000001;fill:#000000;fill-opacity:1;stroke:none" />
          </g>
          <text
             xml:space="preserve"
             style="font-size:20px;font-style:normal;font-weight:normal;line-height:125%;letter-spacing:0px;word-spacing:0px;fill:#000000;fill-opacity:1;stroke:none;font-family:Sans"
             x="153.54219"
             y="198.20766"
             id="text4095"
             sodipodi:linespacing="125%"><tspan
               sodipodi:role="line"
               id="tspan4097"
               x="153.54219"
               y="198.20766">Process2</tspan></text>
        </g>
      </g>
      <g
         style="opacity:0.9"
         id="g4099"
         transform="matrix(-1,0,0,-1,751.20819,433.78277)">
        <rect
           ry="0.075000003"
           rx="0.074511841"
           y="217.9518"
           x="143.70819"
           height="29"
           width="236.5"
           id="rect4101"
           style="opacity:0.66000001;fill:none;stroke:#000000;stroke-width:0.99999982;stroke-opacity:1" />
        <text
           transform="scale(-1,-1)"
           sodipodi:linespacing="125%"
           id="text4103"
           y="-225.41078"
           x="-231.96484"
           style="font-size:20px;font-style:normal;font-weight:normal;line-height:125%;letter-spacing:0px;word-spacing:0px;fill:#000000;fill-opacity:1;stroke:none;font-family:Sans"
           xml:space="preserve"><tspan
             y="-225.41078"
             x="-231.96484"
             id="tspan4105"
             sodipodi:role="line">Listener</tspan></text>
        <path
           inkscape:connector-curvature="0"
           id="path4107"
           d="m 380.61449,247.4518 c 0.0413,0 0.0937,-0.021 0.0937,-0.0625 l 0,-29.875 c 0,-0.0416 -0.0525,-0.0625 -0.0937,-0.0625 l -50.75,0 c -0.0413,0 -0.0937,0.0209 -0.0937,0.0625 l 0,29.875 c 0,0.0415 0.0525,0.0625 0.0937,0.0625 l 50.75,0 z m -7.84375,-7.71875 -5.40625,0 c -0.95052,-1e-5 -1.68619,-0.0339 -2.1875,-0.125 -0.70312,-0.1172 -1.27473,-0.35874 -1.75,-0.6875 -0.47525,-0.32879 -0.86653,-0.78256 -1.15625,-1.375 -0.2897,-0.59246 -0.43749,-1.25913 -0.4375,-1.96875 1e-5,-1.21746 0.38152,-2.25066 1.15625,-3.09375 0.77475,-0.84311 2.19402,-1.25001 4.21875,-1.25 l 3.65625,0 0,-5.8125 1.90625,0 0,14.3125 z m -33.03125,-0.3125 0,-3.625 -1.75,0 0,-1.375 1.75,0 0,-6.0625 c 0,-0.5013 -0.0319,-0.82552 -0.0937,-0.96875 -0.0618,-0.14323 -0.17253,-0.25912 -0.3125,-0.34375 -0.13997,-0.0846 -0.33333,-0.125 -0.59375,-0.125 -0.19531,0 -0.43099,0.0169 -0.75,0.0625 l -0.28125,-1.5625 c 0.49479,-0.10417 0.95313,-0.15625 1.34375,-0.15625 0.63802,0 1.11719,0.11068 1.46875,0.3125 0.35156,0.20182 0.60677,0.48372 0.75,0.8125 0.14323,0.32877 0.21875,1.00781 0.21875,2.0625 l 0,5.96875 1.28125,0 0,1.375 -1.28125,0 0,2.5625 -1.75,1.0625 z m 31.125,-1.375 0,-5.125 -3.6875,0 c -1.22395,-1e-5 -2.11067,0.23176 -2.625,0.6875 -0.51432,0.45572 -0.74999,1.11067 -0.75,1.9375 1e-5,0.59895 0.13477,1.10481 0.4375,1.53125 0.30274,0.42642 0.69271,0.70702 1.1875,0.84375 0.31902,0.0846 0.92188,0.12499 1.78125,0.125 l 3.65625,0 z m -15.4375,-2.03125 c -1.42578,-1e-5 -2.59505,-0.47202 -3.5,-1.40625 -0.90494,-0.93425 -1.37499,-2.22787 -1.375,-3.875 1e-5,-1.33464 0.22462,-2.36003 0.625,-3.125 0.4004,-0.76498 0.98503,-1.35807 1.75,-1.78125 0.76498,-0.42318 1.59506,-0.65625 2.5,-0.65625 1.45182,0 2.60482,0.47526 3.5,1.40625 0.89518,0.93099 1.34375,2.27994 1.34375,4.03125 0,1.92057 -0.52604,3.32551 -1.59375,4.25 -0.89193,0.76822 -1.96745,1.15624 -3.25,1.15625 z m -10.75,0 c -0.59245,-1e-5 -1.20052,-0.18491 -1.8125,-0.5625 l 0.625,-1.625 c 0.42969,0.2539 0.85156,0.37499 1.28125,0.375 0.38412,-1e-5 0.72526,-0.11264 1.03125,-0.34375 0.30599,-0.23113 0.52604,-0.5586 0.65625,-0.96875 0.19531,-0.62501 0.3125,-1.28907 0.3125,-2.03125 l 0,-5.4375 1.75,0 0,10.375 -1.59375,0 0,-1.59375 c -0.40365,0.73567 -0.7832,1.23436 -1.125,1.46875 -0.3418,0.23436 -0.71484,0.34374 -1.125,0.34375 z m 10.75,-1.4375 c 0.87891,-1e-5 1.60807,-0.34246 2.1875,-1 0.57943,-0.65756 0.875,-1.64063 0.875,-2.96875 0,-1.32813 -0.29557,-2.3392 -0.875,-3 -0.57943,-0.66081 -1.30859,-0.96875 -2.1875,-0.96875 -0.87239,0 -1.60807,0.30469 -2.1875,0.96875 -0.57942,0.66406 -0.87499,1.70182 -0.875,3.0625 1e-5,1.28255 0.29232,2.24544 0.875,2.90625 0.58269,0.6608 1.32162,0.99999 2.1875,1 z"
           style="opacity:0.2;fill:#000000;fill-opacity:1;fill-rule:nonzero;stroke:none" />
      </g>
    </g>
    <g
       id="g4219"
       transform="translate(25,-30)">
      <path
         inkscape:connector-curvature="0"
         style="opacity:0.2;fill:#000000;fill-opacity:1;stroke:none"
         d="m -133.17878,122.97551 0,555.40625 c 0,0.0416 0.0212,0.0937 0.0625,0.0937 l 4.5,0 c 0.0413,0 0.0625,-0.0522 0.0625,-0.0937 l 0,-555.40625 -4.625,0 z"
         id="path4163" />
      <path
         inkscape:connector-curvature="0"
         style="opacity:0.2;fill:#000000;fill-opacity:1;stroke:none"
         d="m -167.77253,65.819255 c -0.0413,0 -0.0625,0.02095 -0.0625,0.0625 l 0,29.84375 c 0,0.0416 0.0212,0.09375 0.0625,0.09375 0,0 34.59375,-5e-5 34.59375,20.000005 l 0,7.15625 4.625,0 0,-7.15625 c 0,-20.001205 34.562502,-20.000005 34.562502,-20.000005 0.0413,0 0.09375,-0.05225 0.09375,-0.09375 l 0,-29.84375 c 0,-0.04155 -0.05255,-0.0625 -0.09375,-0.0625 l -73.781252,0 z m 4.03125,7.71875 1.90625,0 0,14.3125 -1.90625,0 0,-14.3125 z m 18.21875,0.3125 0,3.625 1.75,0 0,1.375 -1.75,0 0,6.0625 c 0,0.501305 0.0319,0.825523 0.0937,0.96875 0.0618,0.143231 0.14127,0.259116 0.28125,0.34375 0.13997,0.08464 0.36458,0.125002 0.625,0.125 0.19531,2e-6 0.43098,-0.01693 0.75,-0.0625 l 0.25,1.53125 c -0.4948,0.104167 -0.92188,0.15625 -1.3125,0.15625 -0.63802,0 -1.14844,-0.07943 -1.5,-0.28125 -0.35156,-0.201823 -0.57552,-0.483723 -0.71875,-0.8125 -0.14323,-0.328775 -0.21875,-1.007811 -0.21875,-2.0625 l 0,-5.96875 -1.3125,0 0,-1.375 1.3125,0 0,-2.5625 1.75,-1.0625 z m 45.625002,0 0,3.625 1.75,0 0,1.375 -1.75,0 0,6.0625 c 0,0.501305 0.03195,0.825523 0.09375,0.96875 0.0618,0.143231 0.14127,0.259116 0.28125,0.34375 0.13997,0.08464 0.36458,0.125002 0.625,0.125 0.19531,2e-6 0.43098,-0.01693 0.75,-0.0625 l 0.25,1.53125 c -0.4948,0.104167 -0.92188,0.15625 -1.3125,0.15625 -0.63802,0 -1.148442,-0.07943 -1.500002,-0.28125 -0.35156,-0.201823 -0.57552,-0.483723 -0.71875,-0.8125 -0.14323,-0.328775 -0.21875,-1.007811 -0.21875,-2.0625 l 0,-5.96875 -1.3125,0 0,-1.375 1.3125,0 0,-2.5625 1.750002,-1.0625 z m -54.468752,3.40625 c 0.16927,-0.0178 0.32015,10e-7 0.5,0 0.62499,1.1e-5 1.2259,0.0879 1.75,0.3125 0.52408,0.224619 0.89582,0.541676 1.15625,0.90625 0.26041,0.364592 0.45832,0.779957 0.5625,1.28125 0.0651,0.325529 0.0937,0.904955 0.0937,1.71875 l 0,6.375 -1.75,0 0,-6.3125 c -1e-5,-0.716139 -0.082,-1.238925 -0.21875,-1.59375 -0.13673,-0.354809 -0.37045,-0.663403 -0.71875,-0.875 -0.34831,-0.21158 -0.75001,-0.312491 -1.21875,-0.3125 -0.7487,9e-6 -1.39388,0.243498 -1.9375,0.71875 -0.54362,0.475268 -0.84375,1.390632 -0.84375,2.71875 l 0,5.65625 -1.75,0 0,-10.375 1.59375,0 0,1.46875 c 0.6665,-0.996899 1.59635,-1.56288 2.78125,-1.6875 z m 16.5625,0 c 1.38671,1.1e-5 2.52734,0.46225 3.40625,1.40625 0.8789,0.944019 1.31249,2.256517 1.3125,3.96875 -1e-5,0.104172 0.007,0.260422 0,0.46875 l -7.75,0 c 0.0651,1.139327 0.38932,2.019534 0.96875,2.625 0.57942,0.60547 1.32161,0.906251 2.1875,0.90625 0.64452,10e-7 1.16926,-0.161457 1.625,-0.5 0.45572,-0.33854 0.82681,-0.88281 1.09375,-1.625 l 1.8125,0.21875 c -0.28647,1.0612 -0.81902,1.882814 -1.59375,2.46875 -0.77475,0.585938 -1.76433,0.875 -2.96875,0.875 -1.51693,0 -2.70508,-0.440755 -3.59375,-1.375 -0.88867,-0.934243 -1.34375,-2.251299 -1.34375,-3.9375 0,-1.744785 0.44531,-3.09895 1.34375,-4.0625 0.89843,-0.963532 2.0677,-1.437489 3.5,-1.4375 z m 10.6875,0 c 0.59244,1.1e-5 1.20051,0.184906 1.8125,0.5625 l -0.625,1.625 c -0.42969,-0.253898 -0.85157,-0.374991 -1.28125,-0.375 -0.38412,9e-6 -0.72526,0.112639 -1.03125,0.34375 -0.30599,0.231128 -0.52605,0.558602 -0.65625,0.96875 -0.19532,0.625007 -0.28125,1.289069 -0.28125,2.03125 l 0,5.4375 -1.75,0 0,-10.375 1.5625,0 0,1.5625 c 0.40364,-0.735668 0.7832,-1.203115 1.125,-1.4375 0.34179,-0.234365 0.71484,-0.343739 1.125,-0.34375 z m 7.21875,0 c 0.16927,-0.0178 0.3514,10e-7 0.53125,0 0.62499,1.1e-5 1.19465,0.0879 1.71875,0.3125 0.52408,0.224619 0.92707,0.541676 1.1875,0.90625 0.26041,0.364592 0.42707,0.779957 0.53125,1.28125 0.0651,0.325529 0.12499,0.904955 0.125,1.71875 l 0,6.375 -1.78125,0 0,-6.3125 c -1e-5,-0.716139 -0.0508,-1.238925 -0.1875,-1.59375 -0.13673,-0.354809 -0.37045,-0.663403 -0.71875,-0.875 -0.34831,-0.21158 -0.78126,-0.312491 -1.25,-0.3125 -0.7487,9e-6 -1.39388,0.243498 -1.9375,0.71875 -0.54362,0.475268 -0.8125,1.390632 -0.8125,2.71875 l 0,5.65625 -1.75,0 0,-10.375 1.59375,0 0,1.46875 c 0.6665,-0.996899 1.5651,-1.56288 2.75,-1.6875 z m 11.03125,0 c 1.38671,1.1e-5 2.52734,0.46225 3.40625,1.40625 0.8789,0.944019 1.31249,2.256517 1.3125,3.96875 -1e-5,0.104172 0.007,0.260422 0,0.46875 l -7.71875,0 c 0.0651,1.139327 0.35807,2.019534 0.9375,2.625 0.57942,0.60547 1.32161,0.906251 2.1875,0.90625 0.64452,10e-7 1.20051,-0.161457 1.65625,-0.5 0.45572,-0.33854 0.79556,-0.88281 1.0625,-1.625 l 1.8125,0.21875 c -0.28647,1.0612 -0.78777,1.882814 -1.5625,2.46875 -0.77475,0.585938 -1.76433,0.875 -2.96875,0.875 -1.51693,0 -2.73633,-0.440755 -3.625,-1.375 -0.88867,-0.934243 -1.34375,-2.251299 -1.34375,-3.9375 0,-1.744785 0.47656,-3.09895 1.375,-4.0625 0.89843,-0.963532 2.03645,-1.437489 3.46875,-1.4375 z m -28.90625,1.4375 c -0.8073,9e-6 -1.48112,0.272144 -2.03125,0.8125 -0.55013,0.540372 -0.87891,1.251309 -0.9375,2.15625 l 5.8125,0 c -0.0781,-0.872389 -0.32292,-1.532544 -0.6875,-1.96875 -0.5599,-0.677075 -1.26433,-0.999991 -2.15625,-1 z m 28.9375,0 c -0.8073,9e-6 -1.48112,0.272144 -2.03125,0.8125 -0.55013,0.540372 -0.84766,1.251309 -0.90625,2.15625 l 5.78125,0 c -0.0781,-0.872389 -0.29167,-1.532544 -0.65625,-1.96875 -0.5599,-0.677075 -1.29558,-0.999991 -2.1875,-1 z"
         id="path4165" />
    </g>
    <g
       id="g4337"
       transform="translate(0,-1.41421)">
      <g
         id="g4334">
        <rect
           ry="0.075000003"
           rx="0.074511841"
           y="352.41422"
           x="481.20819"
           height="82.386574"
           width="149"
           id="rect4301"
           style="opacity:0.66000001;fill:none;stroke:#000000;stroke-width:1;stroke-miterlimit:4;stroke-opacity:1;stroke-dasharray:3, 1;stroke-dashoffset:0" />
      </g>
      <g
         id="g4327">
        <g
           transform="translate(360.2082,176.27669)"
           id="g4305">
          <rect
             style="opacity:0.66000001;fill:none;stroke:none"
             id="rect4307"
             width="148"
             height="1"
             x="121.5"
             y="175.63751"
             rx="0.074511841"
             ry="0.075000003" />
          <rect
             ry="0.075000003"
             rx="0.074511841"
             y="205.63718"
             x="121.5"
             height="1"
             width="148"
             id="rect4309"
             style="opacity:0.66000001;fill:#000000;fill-opacity:1;stroke:none" />
        </g>
        <text
           xml:space="preserve"
           style="font-size:20px;font-style:normal;font-weight:normal;line-height:125%;letter-spacing:0px;word-spacing:0px;fill:#000000;fill-opacity:1;stroke:none;font-family:Sans"
           x="515.05878"
           y="374.48434"
           id="text4311"
           sodipodi:linespacing="125%"><tspan
             sodipodi:role="line"
             id="tspan4313"
             x="515.05878"
             y="374.48434">Process1</tspan></text>
      </g>
    </g>
    <g
       id="g4049"
       transform="translate(-5.8019408,-0.62117515)">
      <rect
         ry="0.075000003"
         rx="0.074511841"
         y="217.9518"
         x="143.70819"
         height="29"
         width="236.5"
         id="rect3931"
         style="opacity:0.66000001;fill:none;stroke:#000000;stroke-width:0.99999982;stroke-opacity:1" />
      <text
         sodipodi:linespacing="125%"
         id="text3994"
         y="239.49281"
         x="159.03516"
         style="font-size:20px;font-style:normal;font-weight:normal;line-height:125%;letter-spacing:0px;word-spacing:0px;fill:#000000;fill-opacity:1;stroke:none;font-family:Sans"
         xml:space="preserve"><tspan
           y="239.49281"
           x="159.03516"
           id="tspan3996"
           sodipodi:role="line">Listener</tspan></text>
      <path
         inkscape:connector-curvature="0"
         id="rect4019"
         d="m 329.86449,217.4518 c -0.0413,0 -0.0937,0.021 -0.0937,0.0625 l 0,29.875 c 0,0.0416 0.0525,0.0625 0.0937,0.0625 l 50.75,0 c 0.0413,0 0.0937,-0.0209 0.0937,-0.0625 l 0,-29.875 c 0,-0.0415 -0.0525,-0.0625 -0.0937,-0.0625 l -50.75,0 z m 7.84375,7.71875 5.40625,0 c 0.95052,1e-5 1.68619,0.0339 2.1875,0.125 0.70312,0.1172 1.27473,0.35874 1.75,0.6875 0.47525,0.32879 0.86653,0.78256 1.15625,1.375 0.2897,0.59246 0.43749,1.25913 0.4375,1.96875 -10e-6,1.21746 -0.38152,2.25066 -1.15625,3.09375 -0.77475,0.84311 -2.19402,1.25001 -4.21875,1.25 l -3.65625,0 0,5.8125 -1.90625,0 0,-14.3125 z m 33.03125,0.3125 0,3.625 1.75,0 0,1.375 -1.75,0 0,6.0625 c 0,0.5013 0.0319,0.82552 0.0937,0.96875 0.0618,0.14323 0.17253,0.25912 0.3125,0.34375 0.13997,0.0846 0.33333,0.125 0.59375,0.125 0.19531,0 0.43099,-0.0169 0.75,-0.0625 l 0.28125,1.5625 c -0.49479,0.10417 -0.95313,0.15625 -1.34375,0.15625 -0.63802,0 -1.11719,-0.11068 -1.46875,-0.3125 -0.35156,-0.20182 -0.60677,-0.48372 -0.75,-0.8125 -0.14323,-0.32877 -0.21875,-1.00781 -0.21875,-2.0625 l 0,-5.96875 -1.28125,0 0,-1.375 1.28125,0 0,-2.5625 1.75,-1.0625 z m -31.125,1.375 0,5.125 3.6875,0 c 1.22395,1e-5 2.11067,-0.23176 2.625,-0.6875 0.51432,-0.45572 0.74999,-1.11067 0.75,-1.9375 -10e-6,-0.59895 -0.13477,-1.10481 -0.4375,-1.53125 -0.30274,-0.42642 -0.69271,-0.70702 -1.1875,-0.84375 -0.31902,-0.0846 -0.92188,-0.12499 -1.78125,-0.125 l -3.65625,0 z m 15.4375,2.03125 c 1.42578,1e-5 2.59505,0.47202 3.5,1.40625 0.90494,0.93425 1.37499,2.22787 1.375,3.875 -10e-6,1.33464 -0.22462,2.36003 -0.625,3.125 -0.4004,0.76498 -0.98503,1.35807 -1.75,1.78125 -0.76498,0.42318 -1.59506,0.65625 -2.5,0.65625 -1.45182,0 -2.60482,-0.47526 -3.5,-1.40625 -0.89518,-0.93099 -1.34375,-2.27994 -1.34375,-4.03125 0,-1.92057 0.52604,-3.32551 1.59375,-4.25 0.89193,-0.76822 1.96745,-1.15624 3.25,-1.15625 z m 10.75,0 c 0.59245,1e-5 1.20052,0.18491 1.8125,0.5625 l -0.625,1.625 c -0.42969,-0.2539 -0.85156,-0.37499 -1.28125,-0.375 -0.38412,1e-5 -0.72526,0.11264 -1.03125,0.34375 -0.30599,0.23113 -0.52604,0.5586 -0.65625,0.96875 -0.19531,0.62501 -0.3125,1.28907 -0.3125,2.03125 l 0,5.4375 -1.75,0 0,-10.375 1.59375,0 0,1.59375 c 0.40365,-0.73567 0.7832,-1.23436 1.125,-1.46875 0.3418,-0.23436 0.71484,-0.34374 1.125,-0.34375 z m -10.75,1.4375 c -0.87891,1e-5 -1.60807,0.34246 -2.1875,1 -0.57943,0.65756 -0.875,1.64063 -0.875,2.96875 0,1.32813 0.29557,2.3392 0.875,3 0.57943,0.66081 1.30859,0.96875 2.1875,0.96875 0.87239,0 1.60807,-0.30469 2.1875,-0.96875 0.57942,-0.66406 0.87499,-1.70182 0.875,-3.0625 -10e-6,-1.28255 -0.29232,-2.24544 -0.875,-2.90625 -0.58269,-0.6608 -1.32162,-0.99999 -2.1875,-1 z"
         style="opacity:0.2;fill:#000000;fill-opacity:1;fill-rule:nonzero;stroke:none" />
      <rect
         style="opacity:0.66000001;fill:none;stroke:#000000;stroke-width:0.99999982;stroke-opacity:1"
         id="rect4375"
         width="236.5"
         height="29"
         x="143.70819"
         y="217.9518"
         rx="0.074511841"
         ry="0.075000003" />
    </g>
    <g
       id="g4290">
      <rect
         ry="0.075000003"
         rx="0.074511841"
         y="351"
         x="115.19805"
         height="82.386574"
         width="149"
         id="rect4237"
         style="opacity:0.66000001;fill:none;stroke:#000000;stroke-width:1;stroke-miterlimit:4;stroke-opacity:1;stroke-dasharray:3, 1;stroke-dashoffset:0" />
      <g
         id="g4283">
        <g
           id="g4239"
           transform="translate(-5.8019384,174.86248)">
          <rect
             ry="0.075000003"
             rx="0.074511841"
             y="175.63751"
             x="121.5"
             height="1"
             width="148"
             id="rect4241"
             style="opacity:0.66000001;fill:none;stroke:none" />
          <rect
             style="opacity:0.66000001;fill:#000000;fill-opacity:1;stroke:none"
             id="rect4243"
             width="148"
             height="1"
             x="121.5"
             y="205.63718"
             rx="0.074511841"
             ry="0.075000003" />
        </g>
        <text
           sodipodi:linespacing="125%"
           id="text4245"
           y="373.07013"
           x="147.74005"
           style="font-size:20px;font-style:normal;font-weight:normal;line-height:125%;letter-spacing:0px;word-spacing:0px;fill:#000000;fill-opacity:1;stroke:none;font-family:Sans"
           xml:space="preserve"><tspan
             y="373.07013"
             x="147.74005"
             id="tspan4247"
             sodipodi:role="line">Process2</tspan></text>
      </g>
    </g>
    <text
       sodipodi:linespacing="125%"
       id="text4351"
       y="414.35132"
       x="153.70197"
       style="font-size:20px;font-style:normal;font-weight:normal;line-height:125%;letter-spacing:0px;word-spacing:0px;fill:#000000;fill-opacity:1;stroke:none;font-family:Sans"
       xml:space="preserve"><tspan
         y="414.35132"
         x="153.70197"
         id="tspan4353"
         sodipodi:role="line">Connection</tspan></text>
    <path
       style="opacity:0.66000001;fill:none;stroke:#000000;stroke-width:0.99999982;stroke-opacity:1"
       d="M 137.96875 392.6875 C 137.92745 392.6875 137.90625 392.73975 137.90625 392.78125 L 137.90625 421.625 C 137.90625 421.6665 137.92745 421.6875 137.96875 421.6875 L 371.0625 421.6875 L 374.34375 421.6875 L 607.4375 421.6875 C 607.47878 421.6875 607.5 421.66655 607.5 421.625 L 607.5 392.78125 C 607.5 392.7397 607.47878 392.6875 607.4375 392.6875 L 374.34375 392.6875 L 371.0625 392.6875 L 137.96875 392.6875 z "
       id="rect4510" />
    <text
       xml:space="preserve"
       style="font-size:20px;font-style:normal;font-weight:normal;line-height:125%;letter-spacing:0px;word-spacing:0px;fill:#000000;fill-opacity:1;stroke:none;font-family:Sans"
       x="490.84491"
       y="414.35132"
       id="text4621"
       sodipodi:linespacing="125%"><tspan
         sodipodi:role="line"
         id="tspan4623"
         x="490.84491"
         y="414.35132">Connection</tspan></text>
    <g
       id="g4659"
       transform="translate(3.31275,0)">
      <rect
         style="opacity:0.2;fill:#000000;fill-opacity:1;fill-rule:nonzero;stroke:none"
         id="rect4655"
         width="15"
         height="28"
         x="370.28125"
         y="393.18719"
         rx="0.074511841"
         ry="0.075000003" />
      <rect
         ry="0.075000003"
         rx="0.074511841"
         y="393.18719"
         x="370.28125"
         height="28"
         width="20"
         id="rect4657"
         style="opacity:0.2;fill:#000000;fill-opacity:1;fill-rule:nonzero;stroke:none" />
      <rect
         ry="0.075000003"
         rx="0.074511841"
         y="393.18719"
         x="370.28125"
         height="28"
         width="10"
         id="rect4653"
         style="opacity:0.2;fill:#000000;fill-opacity:1;fill-rule:nonzero;stroke:none" />
    </g>
    <g
       id="g4664"
       transform="matrix(-1,0,0,1,741.87525,0)">
      <rect
         ry="0.075000003"
         rx="0.074511841"
         y="393.18719"
         x="370.28125"
         height="28"
         width="15"
         id="rect4666"
         style="opacity:0.2;fill:#000000;fill-opacity:1;fill-rule:nonzero;stroke:none" />
      <rect
         style="opacity:0.2;fill:#000000;fill-opacity:1;fill-rule:nonzero;stroke:none"
         id="rect4668"
         width="20"
         height="28"
         x="370.28125"
         y="393.18719"
         rx="0.074511841"
         ry="0.075000003" />
      <rect
         style="opacity:0.2;fill:#000000;fill-opacity:1;fill-rule:nonzero;stroke:none"
         id="rect4670"
         width="10"
         height="28"
         x="370.28125"
         y="393.18719"
         rx="0.074511841"
         ry="0.075000003" />
    </g>
  </g>
</svg>
