<?xml version="1.0" encoding="UTF-8" standalone="no"?>
<!-- Created with Inkscape (http://www.inkscape.org/) -->

<svg
   xmlns:dc="http://purl.org/dc/elements/1.1/"
   xmlns:cc="http://creativecommons.org/ns#"
   xmlns:rdf="http://www.w3.org/1999/02/22-rdf-syntax-ns#"
   xmlns:svg="http://www.w3.org/2000/svg"
   xmlns="http://www.w3.org/2000/svg"
   xmlns:sodipodi="http://sodipodi.sourceforge.net/DTD/sodipodi-0.dtd"
   xmlns:inkscape="http://www.inkscape.org/namespaces/inkscape"
   width="647.31079"
   height="395.06833"
   id="svg2"
   version="1.1"
   inkscape:version="0.48.1 "
   sodipodi:docname="processes_and_communication_final.svg">
  <title
     id="title4588">Processes&amp;Communication</title>
  <defs
     id="defs4" />
  <sodipodi:namedview
     id="base"
     pagecolor="#ffffff"
     bordercolor="#666666"
     borderopacity="1.0"
     inkscape:pageopacity="0.0"
     inkscape:pageshadow="2"
     inkscape:zoom="0.70710678"
     inkscape:cx="326.22456"
     inkscape:cy="98.137495"
     inkscape:document-units="px"
     inkscape:current-layer="layer1"
     showgrid="false"
     inkscape:object-nodes="false"
     showguides="true"
     inkscape:guide-bbox="true"
     inkscape:window-width="1366"
     inkscape:window-height="716"
     inkscape:window-x="-4"
     inkscape:window-y="-4"
     inkscape:window-maximized="1"
     fit-margin-top="10"
     fit-margin-left="10"
     fit-margin-right="10"
     fit-margin-bottom="10" />
  <metadata
     id="metadata7">
    <rdf:RDF>
      <cc:Work
         rdf:about="">
        <dc:format>image/svg+xml</dc:format>
        <dc:type
           rdf:resource="http://purl.org/dc/dcmitype/StillImage" />
        <dc:title>Processes&amp;Communication</dc:title>
      </cc:Work>
    </rdf:RDF>
  </metadata>
  <g
     inkscape:label="Ebene 1"
     inkscape:groupmode="layer"
     id="layer1"
     transform="translate(-48.801029,-79.71875)">
    <rect
       style="opacity:0.66000001;fill:none;stroke:#000000;stroke-width:1.99999988;stroke-linecap:butt;stroke-linejoin:round;stroke-miterlimit:4;stroke-opacity:1;stroke-dasharray:none;stroke-dashoffset:0"
       id="rect3031"
       width="258"
       height="298"
       x="59.801029"
       y="148.06862"
       rx="0.074511841"
       ry="0.075000003" />
    <rect
       ry="0.075000003"
       rx="0.074511841"
       y="148.06862"
       x="427.11182"
       height="298"
       width="258"
       id="rect3801"
       style="opacity:0.66000001;fill:none;stroke:#000000;stroke-width:1.99999988;stroke-linecap:butt;stroke-linejoin:round;stroke-miterlimit:4;stroke-opacity:1;stroke-dasharray:none;stroke-dashoffset:0" />
    <g
       id="g4706">
      <path
         inkscape:connector-curvature="0"
         id="path4145"
         d="m 370.28125,146.875 0,317.85847 c 0,0.0238 0.0212,0.0536 0.0625,0.0536 l 4.5,0 c 0.0413,0 0.0625,-0.0299 0.0625,-0.0536 l 0,-317.85847 -4.625,0 z"
         style="opacity:0.2;fill:#000000;fill-opacity:1;stroke:none" />
      <path
         id="path4137"
         d="m 335.6875,89.71875 c -0.0413,0 -0.0625,0.02095 -0.0625,0.0625 l 0,29.84375 c 0,0.0416 0.0212,0.0937 0.0625,0.0937 0,0 34.59375,-5e-5 34.59375,20 l 0,7.15625 4.625,0 0,-7.15625 c 0,-20.0012 34.5625,-20 34.5625,-20 0.0413,0 0.0937,-0.0523 0.0937,-0.0937 l 0,-29.84375 c 0,-0.04155 -0.0525,-0.0625 -0.0937,-0.0625 l -73.78125,0 z m 4.03125,7.71875 1.90625,0 0,14.3125 -1.90625,0 0,-14.3125 z m 18.21875,0.3125 0,3.625 1.75,0 0,1.375 -1.75,0 0,6.0625 c 0,0.50131 0.0319,0.82552 0.0937,0.96875 0.0618,0.14323 0.14127,0.25912 0.28125,0.34375 0.13997,0.0846 0.36458,0.125 0.625,0.125 0.19531,0 0.43098,-0.0169 0.75,-0.0625 l 0.25,1.53125 c -0.4948,0.10417 -0.92188,0.15625 -1.3125,0.15625 -0.63802,0 -1.14844,-0.0794 -1.5,-0.28125 -0.35156,-0.20182 -0.57552,-0.48372 -0.71875,-0.8125 -0.14323,-0.32877 -0.21875,-1.00781 -0.21875,-2.0625 l 0,-5.96875 -1.3125,0 0,-1.375 1.3125,0 0,-2.5625 1.75,-1.0625 z m 45.625,0 0,3.625 1.75,0 0,1.375 -1.75,0 0,6.0625 c 0,0.50131 0.0319,0.82552 0.0937,0.96875 0.0618,0.14323 0.14127,0.25912 0.28125,0.34375 0.13997,0.0846 0.36458,0.125 0.625,0.125 0.19531,0 0.43098,-0.0169 0.75,-0.0625 l 0.25,1.53125 c -0.4948,0.10417 -0.92188,0.15625 -1.3125,0.15625 -0.63802,0 -1.14844,-0.0794 -1.5,-0.28125 -0.35156,-0.20182 -0.57552,-0.48372 -0.71875,-0.8125 -0.14323,-0.32877 -0.21875,-1.00781 -0.21875,-2.0625 l 0,-5.96875 -1.3125,0 0,-1.375 1.3125,0 0,-2.5625 1.75,-1.0625 z m -54.46875,3.40625 c 0.16927,-0.0178 0.32015,0 0.5,0 0.62499,1e-5 1.2259,0.0879 1.75,0.3125 0.52408,0.22462 0.89582,0.54168 1.15625,0.90625 0.26041,0.36459 0.45832,0.77996 0.5625,1.28125 0.0651,0.32553 0.0937,0.90496 0.0937,1.71875 l 0,6.375 -1.75,0 0,-6.3125 c -1e-5,-0.71614 -0.082,-1.23892 -0.21875,-1.59375 -0.13673,-0.35481 -0.37045,-0.6634 -0.71875,-0.875 -0.34831,-0.21158 -0.75001,-0.31249 -1.21875,-0.3125 -0.7487,1e-5 -1.39388,0.2435 -1.9375,0.71875 -0.54362,0.47527 -0.84375,1.39063 -0.84375,2.71875 l 0,5.65625 -1.75,0 0,-10.375 1.59375,0 0,1.46875 c 0.6665,-0.9969 1.59635,-1.56288 2.78125,-1.6875 z m 16.5625,0 c 1.38671,1e-5 2.52734,0.46225 3.40625,1.40625 0.8789,0.94402 1.31249,2.25652 1.3125,3.96875 -10e-6,0.10417 0.007,0.26042 0,0.46875 l -7.75,0 c 0.0651,1.13933 0.38932,2.01953 0.96875,2.625 0.57942,0.60547 1.32161,0.90625 2.1875,0.90625 0.64452,0 1.16926,-0.16146 1.625,-0.5 0.45572,-0.33854 0.82681,-0.88281 1.09375,-1.625 l 1.8125,0.21875 c -0.28647,1.0612 -0.81902,1.88281 -1.59375,2.46875 -0.77475,0.58594 -1.76433,0.875 -2.96875,0.875 -1.51693,0 -2.70508,-0.44075 -3.59375,-1.375 -0.88867,-0.93424 -1.34375,-2.2513 -1.34375,-3.9375 0,-1.74478 0.44531,-3.09895 1.34375,-4.0625 0.89843,-0.96353 2.0677,-1.43749 3.5,-1.4375 z m 10.6875,0 c 0.59244,1e-5 1.20051,0.18491 1.8125,0.5625 l -0.625,1.625 c -0.42969,-0.2539 -0.85157,-0.37499 -1.28125,-0.375 -0.38412,1e-5 -0.72526,0.11264 -1.03125,0.34375 -0.30599,0.23113 -0.52605,0.5586 -0.65625,0.96875 -0.19532,0.62501 -0.28125,1.28907 -0.28125,2.03125 l 0,5.4375 -1.75,0 0,-10.375 1.5625,0 0,1.5625 c 0.40364,-0.73567 0.7832,-1.20311 1.125,-1.4375 0.34179,-0.23436 0.71484,-0.34374 1.125,-0.34375 z m 7.21875,0 c 0.16927,-0.0178 0.3514,0 0.53125,0 0.62499,1e-5 1.19465,0.0879 1.71875,0.3125 0.52408,0.22462 0.92707,0.54168 1.1875,0.90625 0.26041,0.36459 0.42707,0.77996 0.53125,1.28125 0.0651,0.32553 0.12499,0.90496 0.125,1.71875 l 0,6.375 -1.78125,0 0,-6.3125 c -10e-6,-0.71614 -0.0508,-1.23892 -0.1875,-1.59375 -0.13673,-0.35481 -0.37045,-0.6634 -0.71875,-0.875 -0.34831,-0.21158 -0.78126,-0.31249 -1.25,-0.3125 -0.7487,1e-5 -1.39388,0.2435 -1.9375,0.71875 -0.54362,0.47527 -0.8125,1.39063 -0.8125,2.71875 l 0,5.65625 -1.75,0 0,-10.375 1.59375,0 0,1.46875 c 0.6665,-0.9969 1.5651,-1.56288 2.75,-1.6875 z m 11.03125,0 c 1.38671,1e-5 2.52734,0.46225 3.40625,1.40625 0.8789,0.94402 1.31249,2.25652 1.3125,3.96875 -10e-6,0.10417 0.007,0.26042 0,0.46875 l -7.71875,0 c 0.0651,1.13933 0.35807,2.01953 0.9375,2.625 0.57942,0.60547 1.32161,0.90625 2.1875,0.90625 0.64452,0 1.20051,-0.16146 1.65625,-0.5 0.45572,-0.33854 0.79556,-0.88281 1.0625,-1.625 l 1.8125,0.21875 c -0.28647,1.0612 -0.78777,1.88281 -1.5625,2.46875 -0.77475,0.58594 -1.76433,0.875 -2.96875,0.875 -1.51693,0 -2.73633,-0.44075 -3.625,-1.375 -0.88867,-0.93424 -1.34375,-2.2513 -1.34375,-3.9375 0,-1.74478 0.47656,-3.09895 1.375,-4.0625 0.89843,-0.96353 2.03645,-1.43749 3.46875,-1.4375 z m -28.90625,1.4375 c -0.8073,1e-5 -1.48112,0.27214 -2.03125,0.8125 -0.55013,0.54037 -0.87891,1.25131 -0.9375,2.15625 l 5.8125,0 c -0.0781,-0.87239 -0.32292,-1.53254 -0.6875,-1.96875 -0.5599,-0.67708 -1.26433,-0.99999 -2.15625,-1 z m 28.9375,0 c -0.8073,1e-5 -1.48112,0.27214 -2.03125,0.8125 -0.55013,0.54037 -0.84766,1.25131 -0.90625,2.15625 l 5.78125,0 c -0.0781,-0.87239 -0.29167,-1.53254 -0.65625,-1.96875 -0.5599,-0.67708 -1.29558,-0.99999 -2.1875,-1 z"
         style="opacity:0.2;fill:#000000;fill-opacity:1;stroke:none"
         inkscape:connector-curvature="0" />
    </g>
    <g
       id="g4055"
       transform="translate(-5.8019408,-0.5000038)">
      <rect
         style="opacity:0.66000001;fill:none;stroke:#000000;stroke-width:0.99999994;stroke-miterlimit:4;stroke-opacity:1;stroke-dasharray:none"
         id="rect3929"
         width="149"
         height="82.386574"
         x="120.99999"
         y="176.13751"
         rx="0.074511841"
         ry="0.075000003" />
      <g
         id="g3973">
        <rect
           ry="0.075000003"
           rx="0.074511841"
           y="175.63751"
           x="121.5"
           height="1"
           width="148"
           id="rect3935"
           style="opacity:0.66000001;fill:none;stroke:none" />
        <rect
           style="opacity:0.66000001;fill:#000000;fill-opacity:1;stroke:none"
           id="rect3956"
           width="148"
           height="1"
           x="121.5"
           y="205.63718"
           rx="0.074511841"
           ry="0.075000003" />
      </g>
      <text
         sodipodi:linespacing="125%"
         id="text3940"
         y="198.20766"
         x="154.85059"
         style="font-size:20px;font-style:normal;font-weight:normal;line-height:125%;letter-spacing:0px;word-spacing:0px;fill:#000000;fill-opacity:1;stroke:none;font-family:Sans"
         xml:space="preserve"><tspan
           y="198.20766"
           x="154.85059"
           id="tspan3942"
           sodipodi:role="line">Process1</tspan></text>
    </g>
    <g
       id="g4167"
       transform="translate(0,0.50000359)">
      <rect
         transform="scale(-1,-1)"
         ry="0.075000003"
         rx="0.074511841"
         y="-257.52408"
         x="-630.20819"
         height="82.386574"
         width="149"
         id="rect4087"
         style="opacity:0.594;fill:none;stroke:#000000;stroke-width:0.99999994;stroke-miterlimit:4;stroke-opacity:1;stroke-dasharray:none" />
      <g
         id="g4109"
         transform="translate(360.208,51.386901)"
         style="opacity:0.9">
        <g
           transform="matrix(-1,0,0,-1,391,382.27469)"
           id="g4089">
          <rect
             ry="0.075000003"
             rx="0.074511841"
             y="175.63751"
             x="121.5"
             height="1"
             width="148"
             id="rect4091"
             style="opacity:0.66000001;fill:none;stroke:none" />
          <rect
             style="opacity:0.66000001;fill:#000000;fill-opacity:1;stroke:none"
             id="rect4093"
             width="148"
             height="1"
             x="121.5"
             y="205.63718"
             rx="0.074511841"
             ry="0.075000003" />
        </g>
        <text
           sodipodi:linespacing="125%"
           id="text4095"
           y="198.20766"
           x="153.54219"
           style="font-size:20px;font-style:normal;font-weight:normal;line-height:125%;letter-spacing:0px;word-spacing:0px;fill:#000000;fill-opacity:1;stroke:none;font-family:Sans"
           xml:space="preserve"><tspan
             y="198.20766"
             x="153.54219"
             id="tspan4097"
             sodipodi:role="line">Process2</tspan></text>
      </g>
    </g>
    <g
       transform="matrix(-1,0,0,-1,751.20819,434.28277)"
       id="g4099"
       style="opacity:0.9">
      <rect
         style="opacity:0.66000001;fill:none;stroke:#000000;stroke-width:0.99999982;stroke-opacity:1"
         id="rect4101"
         width="236.5"
         height="29"
         x="143.70819"
         y="217.9518"
         rx="0.074511841"
         ry="0.075000003" />
      <text
         xml:space="preserve"
         style="font-size:20px;font-style:normal;font-weight:normal;line-height:125%;letter-spacing:0px;word-spacing:0px;fill:#000000;fill-opacity:1;stroke:none;font-family:Sans"
         x="-231.96484"
         y="-225.41078"
         id="text4103"
         sodipodi:linespacing="125%"
         transform="scale(-1,-1)"><tspan
           sodipodi:role="line"
           id="tspan4105"
           x="-231.96484"
           y="-225.41078">Listener</tspan></text>
      <path
         style="opacity:0.2;fill:#000000;fill-opacity:1;fill-rule:nonzero;stroke:none"
         d="m 380.61449,247.4518 c 0.0413,0 0.0937,-0.021 0.0937,-0.0625 l 0,-29.875 c 0,-0.0416 -0.0525,-0.0625 -0.0937,-0.0625 l -50.75,0 c -0.0413,0 -0.0937,0.0209 -0.0937,0.0625 l 0,29.875 c 0,0.0415 0.0525,0.0625 0.0937,0.0625 l 50.75,0 z m -7.84375,-7.71875 -5.40625,0 c -0.95052,-1e-5 -1.68619,-0.0339 -2.1875,-0.125 -0.70312,-0.1172 -1.27473,-0.35874 -1.75,-0.6875 -0.47525,-0.32879 -0.86653,-0.78256 -1.15625,-1.375 -0.2897,-0.59246 -0.43749,-1.25913 -0.4375,-1.96875 1e-5,-1.21746 0.38152,-2.25066 1.15625,-3.09375 0.77475,-0.84311 2.19402,-1.25001 4.21875,-1.25 l 3.65625,0 0,-5.8125 1.90625,0 0,14.3125 z m -33.03125,-0.3125 0,-3.625 -1.75,0 0,-1.375 1.75,0 0,-6.0625 c 0,-0.5013 -0.0319,-0.82552 -0.0937,-0.96875 -0.0618,-0.14323 -0.17253,-0.25912 -0.3125,-0.34375 -0.13997,-0.0846 -0.33333,-0.125 -0.59375,-0.125 -0.19531,0 -0.43099,0.0169 -0.75,0.0625 l -0.28125,-1.5625 c 0.49479,-0.10417 0.95313,-0.15625 1.34375,-0.15625 0.63802,0 1.11719,0.11068 1.46875,0.3125 0.35156,0.20182 0.60677,0.48372 0.75,0.8125 0.14323,0.32877 0.21875,1.00781 0.21875,2.0625 l 0,5.96875 1.28125,0 0,1.375 -1.28125,0 0,2.5625 -1.75,1.0625 z m 31.125,-1.375 0,-5.125 -3.6875,0 c -1.22395,-1e-5 -2.11067,0.23176 -2.625,0.6875 -0.51432,0.45572 -0.74999,1.11067 -0.75,1.9375 1e-5,0.59895 0.13477,1.10481 0.4375,1.53125 0.30274,0.42642 0.69271,0.70702 1.1875,0.84375 0.31902,0.0846 0.92188,0.12499 1.78125,0.125 l 3.65625,0 z m -15.4375,-2.03125 c -1.42578,-1e-5 -2.59505,-0.47202 -3.5,-1.40625 -0.90494,-0.93425 -1.37499,-2.22787 -1.375,-3.875 1e-5,-1.33464 0.22462,-2.36003 0.625,-3.125 0.4004,-0.76498 0.98503,-1.35807 1.75,-1.78125 0.76498,-0.42318 1.59506,-0.65625 2.5,-0.65625 1.45182,0 2.60482,0.47526 3.5,1.40625 0.89518,0.93099 1.34375,2.27994 1.34375,4.03125 0,1.92057 -0.52604,3.32551 -1.59375,4.25 -0.89193,0.76822 -1.96745,1.15624 -3.25,1.15625 z m -10.75,0 c -0.59245,-1e-5 -1.20052,-0.18491 -1.8125,-0.5625 l 0.625,-1.625 c 0.42969,0.2539 0.85156,0.37499 1.28125,0.375 0.38412,-1e-5 0.72526,-0.11264 1.03125,-0.34375 0.30599,-0.23113 0.52604,-0.5586 0.65625,-0.96875 0.19531,-0.62501 0.3125,-1.28907 0.3125,-2.03125 l 0,-5.4375 1.75,0 0,10.375 -1.59375,0 0,-1.59375 c -0.40365,0.73567 -0.7832,1.23436 -1.125,1.46875 -0.3418,0.23436 -0.71484,0.34374 -1.125,0.34375 z m 10.75,-1.4375 c 0.87891,-1e-5 1.60807,-0.34246 2.1875,-1 0.57943,-0.65756 0.875,-1.64063 0.875,-2.96875 0,-1.32813 -0.29557,-2.3392 -0.875,-3 -0.57943,-0.66081 -1.30859,-0.96875 -2.1875,-0.96875 -0.87239,0 -1.60807,0.30469 -2.1875,0.96875 -0.57942,0.66406 -0.87499,1.70182 -0.875,3.0625 1e-5,1.28255 0.29232,2.24544 0.875,2.90625 0.58269,0.6608 1.32162,0.99999 2.1875,1 z"
         id="path4107"
         inkscape:connector-curvature="0" />
    </g>
    <g
       id="g4337"
       transform="translate(0,-27.41421)">
      <g
         id="g4334">
        <rect
           ry="0.075000003"
           rx="0.074511841"
           y="352.41422"
           x="481.20819"
           height="82.386574"
           width="149"
           id="rect4301"
           style="opacity:0.66000001;fill:none;stroke:#000000;stroke-width:1;stroke-miterlimit:4;stroke-opacity:1;stroke-dasharray:3, 1;stroke-dashoffset:0" />
      </g>
      <g
         id="g4327">
        <g
           transform="translate(360.2082,176.27669)"
           id="g4305">
          <rect
             style="opacity:0.66000001;fill:none;stroke:none"
             id="rect4307"
             width="148"
             height="1"
             x="121.5"
             y="175.63751"
             rx="0.074511841"
             ry="0.075000003" />
          <rect
             ry="0.075000003"
             rx="0.074511841"
             y="205.63718"
             x="121.5"
             height="1"
             width="148"
             id="rect4309"
             style="opacity:0.66000001;fill:#000000;fill-opacity:1;stroke:none" />
        </g>
        <text
           xml:space="preserve"
           style="font-size:20px;font-style:normal;font-weight:normal;line-height:125%;letter-spacing:0px;word-spacing:0px;opacity:0.5;fill:#000000;fill-opacity:1;stroke:none;font-family:Sans"
           x="515.05878"
           y="374.48434"
           id="text4311"
           sodipodi:linespacing="125%"><tspan
             sodipodi:role="line"
             id="tspan4313"
             x="515.05878"
             y="374.48434">Process1</tspan></text>
      </g>
    </g>
    <g
       id="g4049"
       transform="translate(-5.8019408,-0.62117515)">
      <rect
         ry="0.075000003"
         rx="0.074511841"
         y="217.9518"
         x="143.70819"
         height="29"
         width="236.5"
         id="rect3931"
         style="opacity:0.66000001;fill:none;stroke:#000000;stroke-width:0.99999982;stroke-opacity:1" />
      <text
         sodipodi:linespacing="125%"
         id="text3994"
         y="239.49281"
         x="159.03516"
         style="font-size:20px;font-style:normal;font-weight:normal;line-height:125%;letter-spacing:0px;word-spacing:0px;fill:#000000;fill-opacity:1;stroke:none;font-family:Sans"
         xml:space="preserve"><tspan
           y="239.49281"
           x="159.03516"
           id="tspan3996"
           sodipodi:role="line">Listener</tspan></text>
      <path
         inkscape:connector-curvature="0"
         id="rect4019"
         d="m 329.86449,217.4518 c -0.0413,0 -0.0937,0.021 -0.0937,0.0625 l 0,29.875 c 0,0.0416 0.0525,0.0625 0.0937,0.0625 l 50.75,0 c 0.0413,0 0.0937,-0.0209 0.0937,-0.0625 l 0,-29.875 c 0,-0.0415 -0.0525,-0.0625 -0.0937,-0.0625 l -50.75,0 z m 7.84375,7.71875 5.40625,0 c 0.95052,1e-5 1.68619,0.0339 2.1875,0.125 0.70312,0.1172 1.27473,0.35874 1.75,0.6875 0.47525,0.32879 0.86653,0.78256 1.15625,1.375 0.2897,0.59246 0.43749,1.25913 0.4375,1.96875 -10e-6,1.21746 -0.38152,2.25066 -1.15625,3.09375 -0.77475,0.84311 -2.19402,1.25001 -4.21875,1.25 l -3.65625,0 0,5.8125 -1.90625,0 0,-14.3125 z m 33.03125,0.3125 0,3.625 1.75,0 0,1.375 -1.75,0 0,6.0625 c 0,0.5013 0.0319,0.82552 0.0937,0.96875 0.0618,0.14323 0.17253,0.25912 0.3125,0.34375 0.13997,0.0846 0.33333,0.125 0.59375,0.125 0.19531,0 0.43099,-0.0169 0.75,-0.0625 l 0.28125,1.5625 c -0.49479,0.10417 -0.95313,0.15625 -1.34375,0.15625 -0.63802,0 -1.11719,-0.11068 -1.46875,-0.3125 -0.35156,-0.20182 -0.60677,-0.48372 -0.75,-0.8125 -0.14323,-0.32877 -0.21875,-1.00781 -0.21875,-2.0625 l 0,-5.96875 -1.28125,0 0,-1.375 1.28125,0 0,-2.5625 1.75,-1.0625 z m -31.125,1.375 0,5.125 3.6875,0 c 1.22395,1e-5 2.11067,-0.23176 2.625,-0.6875 0.51432,-0.45572 0.74999,-1.11067 0.75,-1.9375 -10e-6,-0.59895 -0.13477,-1.10481 -0.4375,-1.53125 -0.30274,-0.42642 -0.69271,-0.70702 -1.1875,-0.84375 -0.31902,-0.0846 -0.92188,-0.12499 -1.78125,-0.125 l -3.65625,0 z m 15.4375,2.03125 c 1.42578,1e-5 2.59505,0.47202 3.5,1.40625 0.90494,0.93425 1.37499,2.22787 1.375,3.875 -10e-6,1.33464 -0.22462,2.36003 -0.625,3.125 -0.4004,0.76498 -0.98503,1.35807 -1.75,1.78125 -0.76498,0.42318 -1.59506,0.65625 -2.5,0.65625 -1.45182,0 -2.60482,-0.47526 -3.5,-1.40625 -0.89518,-0.93099 -1.34375,-2.27994 -1.34375,-4.03125 0,-1.92057 0.52604,-3.32551 1.59375,-4.25 0.89193,-0.76822 1.96745,-1.15624 3.25,-1.15625 z m 10.75,0 c 0.59245,1e-5 1.20052,0.18491 1.8125,0.5625 l -0.625,1.625 c -0.42969,-0.2539 -0.85156,-0.37499 -1.28125,-0.375 -0.38412,1e-5 -0.72526,0.11264 -1.03125,0.34375 -0.30599,0.23113 -0.52604,0.5586 -0.65625,0.96875 -0.19531,0.62501 -0.3125,1.28907 -0.3125,2.03125 l 0,5.4375 -1.75,0 0,-10.375 1.59375,0 0,1.59375 c 0.40365,-0.73567 0.7832,-1.23436 1.125,-1.46875 0.3418,-0.23436 0.71484,-0.34374 1.125,-0.34375 z m -10.75,1.4375 c -0.87891,1e-5 -1.60807,0.34246 -2.1875,1 -0.57943,0.65756 -0.875,1.64063 -0.875,2.96875 0,1.32813 0.29557,2.3392 0.875,3 0.57943,0.66081 1.30859,0.96875 2.1875,0.96875 0.87239,0 1.60807,-0.30469 2.1875,-0.96875 0.57942,-0.66406 0.87499,-1.70182 0.875,-3.0625 -10e-6,-1.28255 -0.29232,-2.24544 -0.875,-2.90625 -0.58269,-0.6608 -1.32162,-0.99999 -2.1875,-1 z"
         style="opacity:0.2;fill:#000000;fill-opacity:1;fill-rule:nonzero;stroke:none" />
      <rect
         style="opacity:0.66000001;fill:none;stroke:#000000;stroke-width:0.99999982;stroke-opacity:1"
         id="rect4375"
         width="236.5"
         height="29"
         x="143.70819"
         y="217.9518"
         rx="0.074511841"
         ry="0.075000003" />
    </g>
    <g
       id="g4290"
       transform="translate(0,-26)">
      <rect
         ry="0.075000003"
         rx="0.074511841"
         y="351"
         x="115.19805"
         height="82.386574"
         width="149"
         id="rect4237"
         style="opacity:0.66000001;fill:none;stroke:#000000;stroke-width:1;stroke-miterlimit:4;stroke-opacity:1;stroke-dasharray:3, 1;stroke-dashoffset:0" />
      <g
         id="g4283">
        <g
           id="g4239"
           transform="translate(-5.8019384,174.86248)">
          <rect
             ry="0.075000003"
             rx="0.074511841"
             y="175.63751"
             x="121.5"
             height="1"
             width="148"
             id="rect4241"
             style="opacity:0.66000001;fill:none;stroke:none" />
          <rect
             style="opacity:0.66000001;fill:#000000;fill-opacity:1;stroke:none"
             id="rect4243"
             width="148"
             height="1"
             x="121.5"
             y="205.63718"
             rx="0.074511841"
             ry="0.075000003" />
        </g>
        <text
           sodipodi:linespacing="125%"
           id="text4245"
           y="373.07013"
           x="147.74005"
           style="font-size:20px;font-style:normal;font-weight:normal;line-height:125%;letter-spacing:0px;word-spacing:0px;opacity:0.5;fill:#000000;fill-opacity:1;stroke:none;font-family:Sans"
           xml:space="preserve"><tspan
             y="373.07013"
             x="147.74005"
             id="tspan4247"
             sodipodi:role="line">Process2</tspan></text>
      </g>
    </g>
    <g
       id="g4672">
      <text
         xml:space="preserve"
         style="font-size:20px;font-style:normal;font-weight:normal;line-height:125%;letter-spacing:0px;word-spacing:0px;fill:#000000;fill-opacity:1;stroke:none;font-family:Sans"
         x="153.70197"
         y="388.35132"
         id="text4351"
         sodipodi:linespacing="125%"><tspan
           sodipodi:role="line"
           id="tspan4353"
           x="153.70197"
           y="388.35132">Connection</tspan></text>
      <path
         inkscape:connector-curvature="0"
         id="rect4510"
         d="m 137.96875,366.6875 c -0.0413,0 -0.0625,0.0523 -0.0625,0.0937 l 0,28.84375 c 0,0.0415 0.0212,0.0625 0.0625,0.0625 l 233.09375,0 3.28125,0 233.09375,0 c 0.0413,0 0.0625,-0.021 0.0625,-0.0625 l 0,-28.84375 c 0,-0.0415 -0.0212,-0.0937 -0.0625,-0.0937 l -233.09375,0 -3.28125,0 -233.09375,0 z"
         style="opacity:0.66000001;fill:none;stroke:#000000;stroke-width:0.99999982;stroke-opacity:1" />
      <text
         sodipodi:linespacing="125%"
         id="text4621"
         y="388.35132"
         x="490.84491"
         style="font-size:20px;font-style:normal;font-weight:normal;line-height:125%;letter-spacing:0px;word-spacing:0px;fill:#000000;fill-opacity:1;stroke:none;font-family:Sans"
         xml:space="preserve"><tspan
           y="388.35132"
           x="490.84491"
           id="tspan4623"
           sodipodi:role="line">Connection</tspan></text>
      <g
         transform="translate(3.31275,-26)"
         id="g4659">
        <rect
           ry="0.075000003"
           rx="0.074511841"
           y="393.18719"
           x="370.28125"
           height="28"
           width="15"
           id="rect4655"
           style="opacity:0.2;fill:#000000;fill-opacity:1;fill-rule:nonzero;stroke:none" />
        <rect
           style="opacity:0.2;fill:#000000;fill-opacity:1;fill-rule:nonzero;stroke:none"
           id="rect4657"
           width="20"
           height="28"
           x="370.28125"
           y="393.18719"
           rx="0.074511841"
           ry="0.075000003" />
        <rect
           style="opacity:0.2;fill:#000000;fill-opacity:1;fill-rule:nonzero;stroke:none"
           id="rect4653"
           width="10"
           height="28"
           x="370.28125"
           y="393.18719"
           rx="0.074511841"
           ry="0.075000003" />
      </g>
      <g
         transform="matrix(-1,0,0,1,741.87525,-26)"
         id="g4664">
        <rect
           style="opacity:0.2;fill:#000000;fill-opacity:1;fill-rule:nonzero;stroke:none"
           id="rect4666"
           width="15"
           height="28"
           x="370.28125"
           y="393.18719"
           rx="0.074511841"
           ry="0.075000003" />
        <rect
           ry="0.075000003"
           rx="0.074511841"
           y="393.18719"
           x="370.28125"
           height="28"
           width="20"
           id="rect4668"
           style="opacity:0.2;fill:#000000;fill-opacity:1;fill-rule:nonzero;stroke:none" />
        <rect
           ry="0.075000003"
           rx="0.074511841"
           y="393.18719"
           x="370.28125"
           height="28"
           width="10"
           id="rect4670"
           style="opacity:0.2;fill:#000000;fill-opacity:1;fill-rule:nonzero;stroke:none" />
      </g>
    </g>
  </g>
</svg>
