<?xml version="1.0" encoding="UTF-8" standalone="no"?>
<!-- Created with Inkscape (http://www.inkscape.org/) -->

<svg
   xmlns:dc="http://purl.org/dc/elements/1.1/"
   xmlns:cc="http://creativecommons.org/ns#"
   xmlns:rdf="http://www.w3.org/1999/02/22-rdf-syntax-ns#"
   xmlns:svg="http://www.w3.org/2000/svg"
   xmlns="http://www.w3.org/2000/svg"
   xmlns:sodipodi="http://sodipodi.sourceforge.net/DTD/sodipodi-0.dtd"
   xmlns:inkscape="http://www.inkscape.org/namespaces/inkscape"
   width="210mm"
   height="297mm"
   id="svg5045"
   version="1.1"
   inkscape:version="0.48.1 "
   sodipodi:docname="call_through_connection.svg">
  <defs
     id="defs5047" />
  <sodipodi:namedview
     id="base"
     pagecolor="#ffffff"
     bordercolor="#666666"
     borderopacity="1.0"
     inkscape:pageopacity="0.0"
     inkscape:pageshadow="2"
     inkscape:zoom="0.7"
     inkscape:cx="392.42194"
     inkscape:cy="517.37271"
     inkscape:document-units="px"
     inkscape:current-layer="layer1"
     showgrid="false"
     inkscape:window-width="1366"
     inkscape:window-height="716"
     inkscape:window-x="-4"
     inkscape:window-y="-4"
     inkscape:window-maximized="1" />
  <metadata
     id="metadata5050">
    <rdf:RDF>
      <cc:Work
         rdf:about="">
        <dc:format>image/svg+xml</dc:format>
        <dc:type
           rdf:resource="http://purl.org/dc/dcmitype/StillImage" />
        <dc:title></dc:title>
      </cc:Work>
    </rdf:RDF>
  </metadata>
  <g
     inkscape:label="Ebene 1"
     inkscape:groupmode="layer"
     id="layer1">
    <path
       style="opacity:0.51000001;fill:#000000;fill-opacity:1;fill-rule:nonzero;stroke:none"
       d="M 144.96875 361.90625 L 144.96875 459.75 L 284.96875 459.75 C 315.0598 459.75 339.28125 440.57559 339.28125 416.75 L 339.28125 404.90625 C 339.28125 381.08066 315.0598 361.90625 284.96875 361.90625 L 144.96875 361.90625 z M 146.875 363.875 L 281.25 363.875 C 310.13284 363.875 333.375 382.28729 333.375 405.15625 L 333.375 416.5 C 333.375 439.36896 310.13285 457.78125 281.25 457.78125 L 146.875 457.78125 L 146.875 363.875 z "
       id="rect5053" />
    <text
       xml:space="preserve"
       style="font-size:20px;font-style:normal;font-weight:normal;line-height:125%;letter-spacing:0px;word-spacing:0px;fill:#000000;fill-opacity:1;stroke:none;font-family:Sans"
       x="576.23151"
       y="302.24896"
       id="text5565"
       sodipodi:linespacing="125%"><tspan
         sodipodi:role="line"
         id="tspan5567"
         x="576.23151"
         y="302.24896">connectToProcess( </tspan><tspan
         sodipodi:role="line"
         x="576.23151"
         y="327.24896"
         id="tspan5569">    Process1, </tspan><tspan
         sodipodi:role="line"
         x="576.23151"
         y="352.24896"
         id="tspan5571">    Connection)</tspan></text>
    <path
       style="opacity:0.51000001;fill:#000000;fill-opacity:1;fill-rule:nonzero;stroke:none"
       d="m 73.322653,480.11388 c -0.0413,0 -0.05435,0.0346 -0.03125,0.0625 l 8,9.65625 c 0.0231,0.0279 0.0837,0.0625 0.125,0.0625 -0.0413,0 -0.10191,0.003 -0.125,0.0312 l -8,9.6875 c -0.0115,0.014 -0.006,0.0222 0,0.0312 0.006,0.009 0.01065,0 0.03125,0 l 29.156247,0 c 0.0413,0 0.10192,-0.003 0.125,-0.0312 l 7.96875,-9.6875 c 0.0231,-0.0279 0.01,-0.0312 -0.0312,-0.0312 0.0413,0 0.0543,-0.0346 0.0312,-0.0625 l -7.96875,-9.65625 c -0.0231,-0.0279 -0.0837,-0.0625 -0.125,-0.0625 l -29.156247,0 z m 36.437497,0 c -0.0413,0 -0.0543,0.0346 -0.0312,0.0625 l 8,9.65625 c 0.0231,0.0279 0.0837,0.0625 0.125,0.0625 -0.0413,0 -0.10191,0.003 -0.125,0.0312 l -8,9.6875 c -0.0115,0.014 -0.006,0.0222 0,0.0312 0.006,0.009 0.0106,0 0.0312,0 l 29.15625,0 c 0.0413,0 0.10192,-0.003 0.125,-0.0312 l 7.96875,-9.6875 c 0.0231,-0.0279 0.01,-0.0312 -0.0312,-0.0312 0.0413,0 0.0543,-0.0346 0.0312,-0.0625 l -7.96875,-9.65625 c -0.0231,-0.0279 -0.0837,-0.0625 -0.125,-0.0625 l -29.15625,0 z m 36.46875,0 c -0.0413,0 -0.0543,0.0346 -0.0312,0.0625 l 8,9.65625 c 0.0231,0.0279 0.0837,0.0625 0.125,0.0625 -0.0413,0 -0.10191,0.003 -0.125,0.0312 l -8,9.6875 c -0.0115,0.014 -0.006,0.0222 0,0.0312 0.006,0.009 0.0106,0 0.0312,0 l 29.15625,0 c 0.0413,0 0.10192,-0.003 0.125,-0.0312 l 7.96875,-9.6875 c 0.0115,-0.014 0.006,-0.0269 0,-0.0312 0.02,-0.011 0.0173,-0.0416 0,-0.0625 l -7.96875,-9.65625 c -0.0231,-0.0279 -0.0837,-0.0625 -0.125,-0.0625 l -29.15625,0 z m 36.4375,0 c -0.0413,0 -0.0543,0.0346 -0.0312,0.0625 l 8,9.65625 c 0.0231,0.0279 0.0837,0.0625 0.125,0.0625 -0.0413,0 -0.10191,0.003 -0.125,0.0312 l -8,9.6875 c -0.0115,0.014 -0.006,0.0222 0,0.0312 0.006,0.009 0.0106,0 0.0312,0 l 29.15625,0 c 0.0413,0 0.10192,-0.003 0.125,-0.0312 l 7.96875,-9.6875 c 0.0115,-0.014 0.006,-0.0269 0,-0.0312 0.02,-0.011 0.0173,-0.0416 0,-0.0625 l -7.96875,-9.65625 c -0.0231,-0.0279 -0.0837,-0.0625 -0.125,-0.0625 l -29.15625,0 z m 36.4375,0 c -0.0413,0 -0.0543,0.0346 -0.0312,0.0625 l 8,9.65625 c 0.0231,0.0279 0.0837,0.0625 0.125,0.0625 -0.0413,0 -0.10191,0.003 -0.125,0.0312 l -8,9.6875 c -0.0115,0.014 -0.006,0.0222 0,0.0312 0.006,0.009 0.0106,0 0.0312,0 l 29.15625,0 c 0.0413,0 0.10192,-0.003 0.125,-0.0312 l 7.96875,-9.6875 c 0.0115,-0.014 0.006,-0.0269 0,-0.0312 0.02,-0.011 0.0173,-0.0416 0,-0.0625 l -7.96875,-9.65625 c -0.0231,-0.0279 -0.0837,-0.0625 -0.125,-0.0625 l -29.15625,0 z m 36.4375,0 c -0.0413,0 -0.0543,0.0346 -0.0312,0.0625 l 8,9.65625 c 0.0231,0.0279 0.0837,0.0625 0.125,0.0625 -0.0413,0 -0.10191,0.003 -0.125,0.0312 l -8,9.6875 c -0.0115,0.014 -0.006,0.0222 0,0.0312 0.006,0.009 0.0106,0 0.0312,0 l 29.15625,0 c 0.0413,0 0.10192,-0.003 0.125,-0.0312 l 7.96875,-9.6875 c 0.0115,-0.014 0.006,-0.0269 0,-0.0312 0.02,-0.011 0.0173,-0.0416 0,-0.0625 l -7.96875,-9.65625 c -0.0231,-0.0279 -0.0837,-0.0625 -0.125,-0.0625 l -29.15625,0 z m 36.4375,0 c -0.0413,0 -0.0543,0.0346 -0.0312,0.0625 l 8,9.65625 c 0.0231,0.0279 0.0837,0.0625 0.125,0.0625 -0.0413,0 -0.10191,0.003 -0.125,0.0312 l -8,9.6875 c -0.0115,0.014 -0.006,0.0222 0,0.0312 0.006,0.009 0.0106,0 0.0312,0 l 29.15625,0 c 0.0413,0 0.10192,-0.003 0.125,-0.0312 l 7.96875,-9.6875 c 0.0231,-0.0279 0.01,-0.0312 -0.0312,-0.0312 0.0413,0 0.0543,-0.0346 0.0312,-0.0625 l -7.96875,-9.65625 c -0.0231,-0.0279 -0.0837,-0.0625 -0.125,-0.0625 l -29.15625,0 z m 36.46875,0 c -0.0413,0 -0.0543,0.0346 -0.0312,0.0625 l 8,9.65625 c 0.0231,0.0279 0.0837,0.0625 0.125,0.0625 -0.0413,0 -0.10191,0.003 -0.125,0.0312 l -8,9.6875 c -0.0115,0.014 -0.006,0.0222 0,0.0312 0.006,0.009 0.0106,0 0.0312,0 l 29.15625,0 c 0.0413,0 0.10192,-0.003 0.125,-0.0312 l 7.96875,-9.6875 c 0.0115,-0.014 0.006,-0.0269 0,-0.0312 0.02,-0.011 0.0173,-0.0416 0,-0.0625 l -7.96875,-9.65625 c -0.0231,-0.0279 -0.0837,-0.0625 -0.125,-0.0625 l -29.15625,0 z m 36.4375,0 c -0.0413,0 -0.0543,0.0346 -0.0312,0.0625 l 8,9.65625 c 0.0231,0.0279 0.0837,0.0625 0.125,0.0625 -0.0413,0 -0.10191,0.003 -0.125,0.0312 l -8,9.6875 c -0.0115,0.014 -0.006,0.0222 0,0.0312 0.006,0.009 0.0106,0 0.0312,0 l 29.15625,0 c 0.0413,0 0.10192,-0.003 0.125,-0.0312 l 7.96875,-9.6875 c 0.0115,-0.014 0.006,-0.0269 0,-0.0312 0.02,-0.011 0.0173,-0.0416 0,-0.0625 l -7.96875,-9.65625 c -0.0231,-0.0279 -0.0837,-0.0625 -0.125,-0.0625 l -29.15625,0 z m 36.4375,0 c -0.0413,0 -0.0543,0.0346 -0.0312,0.0625 l 8,9.65625 c 0.0231,0.0279 0.0837,0.0625 0.125,0.0625 -0.0413,0 -0.10191,0.003 -0.125,0.0312 l -8,9.6875 c -0.0115,0.014 -0.006,0.0222 0,0.0312 0.006,0.009 0.0106,0 0.0312,0 l 29.15625,0 c 0.0413,0 0.10192,-0.003 0.125,-0.0312 l 7.96875,-9.6875 c 0.0115,-0.014 0.006,-0.0269 0,-0.0312 0.02,-0.011 0.0173,-0.0416 0,-0.0625 l -7.96875,-9.65625 c -0.0231,-0.0279 -0.0837,-0.0625 -0.125,-0.0625 l -29.15625,0 z m 36.4375,0 c -0.0413,0 -0.0543,0.0346 -0.0312,0.0625 l 8,9.65625 c 0.0231,0.0279 0.0837,0.0625 0.125,0.0625 -0.0413,0 -0.10191,0.003 -0.125,0.0312 l -8,9.6875 c -0.0115,0.014 -0.006,0.0222 0,0.0312 0.006,0.009 0.0106,0 0.0312,0 l 29.15625,0 c 0.0413,0 0.10192,-0.003 0.125,-0.0312 l 7.96875,-9.6875 c 0.0115,-0.014 0.006,-0.0269 0,-0.0312 0.02,-0.011 0.0173,-0.0416 0,-0.0625 l -7.96875,-9.65625 c -0.0231,-0.0279 -0.0837,-0.0625 -0.125,-0.0625 l -29.15625,0 z m 36.4375,0 c -0.0413,0 -0.0543,0.0346 -0.0312,0.0625 l 8,9.65625 c 0.0231,0.0279 0.0837,0.0625 0.125,0.0625 -0.0413,0 -0.10191,0.003 -0.125,0.0312 l -8,9.6875 c -0.0115,0.014 -0.006,0.0222 0,0.0312 0.006,0.009 0.0106,0 0.0312,0 l 29.15625,0 c 0.0413,0 0.10192,-0.003 0.125,-0.0312 l 7.96875,-9.6875 c 0.0231,-0.0279 0.01,-0.0312 -0.0312,-0.0312 0.0413,0 0.0543,-0.0346 0.0312,-0.0625 l -7.96875,-9.65625 c -0.0231,-0.0279 -0.0837,-0.0625 -0.125,-0.0625 l -29.15625,0 z m 36.4375,0 c -0.0413,0 -0.0543,0.0346 -0.0312,0.0625 l 8,9.65625 c 0.0231,0.0279 0.0837,0.0625 0.125,0.0625 -0.0413,0 -0.10191,0.003 -0.125,0.0312 l -8,9.6875 c -0.0115,0.014 -0.006,0.0222 0,0.0312 0.006,0.009 0.0106,0 0.0312,0 l 29.15625,0 c 0.0413,0 0.10192,-0.003 0.125,-0.0312 l 7.96875,-9.6875 c 0.0231,-0.0279 0.01,-0.0312 -0.0312,-0.0312 0.0413,0 0.0543,-0.0346 0.0312,-0.0625 l -7.96875,-9.65625 c -0.0231,-0.0279 -0.0837,-0.0625 -0.125,-0.0625 l -29.15625,0 z m 36.46875,0 c -0.0413,0 -0.0543,0.0346 -0.0312,0.0625 l 8,9.65625 c 0.0231,0.0279 0.0837,0.0625 0.125,0.0625 -0.0413,0 -0.10191,0.003 -0.125,0.0312 l -8,9.6875 c -0.0115,0.014 -0.006,0.0222 0,0.0312 0.006,0.009 0.0107,0 0.0312,0 l 29.15625,0 c 0.0413,0 0.10192,-0.003 0.125,-0.0312 l 7.96875,-9.6875 c 0.0116,-0.014 0.006,-0.0269 0,-0.0312 0.02,-0.011 0.0173,-0.0416 0,-0.0625 l -7.96875,-9.65625 c -0.0231,-0.0279 -0.0837,-0.0625 -0.125,-0.0625 l -29.15625,0 z"
       id="rect5573"
       inkscape:connector-curvature="0" />
    <g
       transform="translate(-45.918776,107.50959)"
       id="g4672">
      <text
         xml:space="preserve"
         style="font-size:20px;font-style:normal;font-weight:normal;line-height:125%;letter-spacing:0px;word-spacing:0px;fill:#000000;fill-opacity:1;stroke:none;font-family:Sans"
         x="153.70197"
         y="388.35132"
         id="text4351"
         sodipodi:linespacing="125%"><tspan
           sodipodi:role="line"
           id="tspan4353"
           x="153.70197"
           y="388.35132">Connection</tspan></text>
      <path
         inkscape:connector-curvature="0"
         id="rect4510"
         d="m 137.96875,366.6875 c -0.0413,0 -0.0625,0.0523 -0.0625,0.0937 l 0,28.84375 c 0,0.0415 0.0212,0.0625 0.0625,0.0625 l 233.09375,0 3.28125,0 233.09375,0 c 0.0413,0 0.0625,-0.021 0.0625,-0.0625 l 0,-28.84375 c 0,-0.0415 -0.0212,-0.0937 -0.0625,-0.0937 l -233.09375,0 -3.28125,0 -233.09375,0 z"
         style="opacity:0.66000001;fill:none;stroke:#000000;stroke-width:0.99999982;stroke-opacity:1" />
      <text
         sodipodi:linespacing="125%"
         id="text4621"
         y="388.35132"
         x="490.84491"
         style="font-size:20px;font-style:normal;font-weight:normal;line-height:125%;letter-spacing:0px;word-spacing:0px;fill:#000000;fill-opacity:1;stroke:none;font-family:Sans"
         xml:space="preserve"><tspan
           y="388.35132"
           x="490.84491"
           id="tspan4623"
           sodipodi:role="line">Connection</tspan></text>
      <g
         transform="translate(3.31275,-26)"
         id="g4659">
        <rect
           ry="0.075000003"
           rx="0.074511841"
           y="393.18719"
           x="370.28125"
           height="28"
           width="15"
           id="rect4655"
           style="opacity:0.2;fill:#000000;fill-opacity:1;fill-rule:nonzero;stroke:none" />
        <rect
           style="opacity:0.2;fill:#000000;fill-opacity:1;fill-rule:nonzero;stroke:none"
           id="rect4657"
           width="20"
           height="28"
           x="370.28125"
           y="393.18719"
           rx="0.074511841"
           ry="0.075000003" />
        <rect
           style="opacity:0.2;fill:#000000;fill-opacity:1;fill-rule:nonzero;stroke:none"
           id="rect4653"
           width="10"
           height="28"
           x="370.28125"
           y="393.18719"
           rx="0.074511841"
           ry="0.075000003" />
      </g>
      <g
         transform="matrix(-1,0,0,1,741.87525,-26)"
         id="g4664">
        <rect
           style="opacity:0.2;fill:#000000;fill-opacity:1;fill-rule:nonzero;stroke:none"
           id="rect4666"
           width="15"
           height="28"
           x="370.28125"
           y="393.18719"
           rx="0.074511841"
           ry="0.075000003" />
        <rect
           ry="0.075000003"
           rx="0.074511841"
           y="393.18719"
           x="370.28125"
           height="28"
           width="20"
           id="rect4668"
           style="opacity:0.2;fill:#000000;fill-opacity:1;fill-rule:nonzero;stroke:none" />
        <rect
           ry="0.075000003"
           rx="0.074511841"
           y="393.18719"
           x="370.28125"
           height="28"
           width="10"
           id="rect4670"
           style="opacity:0.2;fill:#000000;fill-opacity:1;fill-rule:nonzero;stroke:none" />
      </g>
    </g>
    <path
       id="path5693"
       d="m 753.8188,273.1513 0,97.84375 -140,0 c -30.0911,0 -54.3125,-19.17441 -54.3125,-43 l 0,-11.84375 c 0,-23.82559 24.2214,-43 54.3125,-43 l 140,0 z m -1.9063,1.96875 -134.375,0 c -28.8828,0 -52.125,18.41229 -52.125,41.28125 l 0,11.34375 c 0,22.86896 23.2422,41.28125 52.125,41.28125 l 134.375,0 0,-93.90625 z"
       style="opacity:0.51000001;fill:#000000;fill-opacity:1;fill-rule:nonzero;stroke:none"
       inkscape:connector-curvature="0" />
    <path
       inkscape:connector-curvature="0"
       id="path5695"
       d="m 54.129755,312.3056 c -0.0413,0 -0.05435,0.0346 -0.03125,0.0625 l 8,9.65625 c 0.0231,0.0279 0.0837,0.0625 0.125,0.0625 -0.0413,0 -0.10191,0.003 -0.125,0.0312 l -8,9.6875 c -0.0115,0.014 -0.006,0.0222 0,0.0312 0.006,0.009 0.01065,0 0.03125,0 l 29.156247,0 c 0.0413,0 0.10192,-0.003 0.125,-0.0312 l 7.96875,-9.6875 c 0.0231,-0.0279 0.01,-0.0312 -0.0312,-0.0312 0.0413,0 0.0543,-0.0346 0.0312,-0.0625 l -7.96875,-9.65625 c -0.0231,-0.0279 -0.0837,-0.0625 -0.125,-0.0625 l -29.156247,0 z m 36.437497,0 c -0.0413,0 -0.0543,0.0346 -0.0312,0.0625 l 8,9.65625 c 0.0231,0.0279 0.0837,0.0625 0.125,0.0625 -0.0413,0 -0.10191,0.003 -0.125,0.0312 l -8,9.6875 c -0.0115,0.014 -0.006,0.0222 0,0.0312 0.006,0.009 0.0106,0 0.0312,0 l 29.156248,0 c 0.0413,0 0.10192,-0.003 0.125,-0.0312 l 7.96875,-9.6875 c 0.0231,-0.0279 0.01,-0.0312 -0.0312,-0.0312 0.0413,0 0.0543,-0.0346 0.0312,-0.0625 l -7.96875,-9.65625 c -0.0231,-0.0279 -0.0837,-0.0625 -0.125,-0.0625 l -29.156248,0 z m 36.468748,0 c -0.0413,0 -0.0543,0.0346 -0.0312,0.0625 l 8,9.65625 c 0.0231,0.0279 0.0837,0.0625 0.125,0.0625 -0.0413,0 -0.10191,0.003 -0.125,0.0312 l -8,9.6875 c -0.0115,0.014 -0.006,0.0222 0,0.0312 0.006,0.009 0.0106,0 0.0312,0 l 29.15625,0 c 0.0413,0 0.10192,-0.003 0.125,-0.0312 l 7.96875,-9.6875 c 0.0115,-0.014 0.006,-0.0269 0,-0.0312 0.02,-0.011 0.0173,-0.0416 0,-0.0625 l -7.96875,-9.65625 c -0.0231,-0.0279 -0.0837,-0.0625 -0.125,-0.0625 l -29.15625,0 z m 36.4375,0 c -0.0413,0 -0.0543,0.0346 -0.0312,0.0625 l 8,9.65625 c 0.0231,0.0279 0.0837,0.0625 0.125,0.0625 -0.0413,0 -0.10191,0.003 -0.125,0.0312 l -8,9.6875 c -0.0115,0.014 -0.006,0.0222 0,0.0312 0.006,0.009 0.0106,0 0.0312,0 l 29.15625,0 c 0.0413,0 0.10192,-0.003 0.125,-0.0312 l 7.96875,-9.6875 c 0.0115,-0.014 0.006,-0.0269 0,-0.0312 0.02,-0.011 0.0173,-0.0416 0,-0.0625 l -7.96875,-9.65625 c -0.0231,-0.0279 -0.0837,-0.0625 -0.125,-0.0625 l -29.15625,0 z m 36.4375,0 c -0.0413,0 -0.0543,0.0346 -0.0312,0.0625 l 8,9.65625 c 0.0231,0.0279 0.0837,0.0625 0.125,0.0625 -0.0413,0 -0.10191,0.003 -0.125,0.0312 l -8,9.6875 c -0.0115,0.014 -0.006,0.0222 0,0.0312 0.006,0.009 0.0106,0 0.0312,0 l 29.15625,0 c 0.0413,0 0.10192,-0.003 0.125,-0.0312 l 7.96875,-9.6875 c 0.0115,-0.014 0.006,-0.0269 0,-0.0312 0.02,-0.011 0.0173,-0.0416 0,-0.0625 l -7.96875,-9.65625 c -0.0231,-0.0279 -0.0837,-0.0625 -0.125,-0.0625 l -29.15625,0 z m 36.4375,0 c -0.0413,0 -0.0543,0.0346 -0.0312,0.0625 l 8,9.65625 c 0.0231,0.0279 0.0837,0.0625 0.125,0.0625 -0.0413,0 -0.10191,0.003 -0.125,0.0312 l -8,9.6875 c -0.0115,0.014 -0.006,0.0222 0,0.0312 0.006,0.009 0.0106,0 0.0312,0 l 29.15625,0 c 0.0413,0 0.10192,-0.003 0.125,-0.0312 l 7.96875,-9.6875 c 0.0115,-0.014 0.006,-0.0269 0,-0.0312 0.02,-0.011 0.0173,-0.0416 0,-0.0625 l -7.96875,-9.65625 c -0.0231,-0.0279 -0.0837,-0.0625 -0.125,-0.0625 l -29.15625,0 z m 36.4375,0 c -0.0413,0 -0.0543,0.0346 -0.0312,0.0625 l 8,9.65625 c 0.0231,0.0279 0.0837,0.0625 0.125,0.0625 -0.0413,0 -0.10191,0.003 -0.125,0.0312 l -8,9.6875 c -0.0115,0.014 -0.006,0.0222 0,0.0312 0.006,0.009 0.0106,0 0.0312,0 l 29.15625,0 c 0.0413,0 0.10192,-0.003 0.125,-0.0312 l 7.96875,-9.6875 c 0.0231,-0.0279 0.01,-0.0312 -0.0312,-0.0312 0.0413,0 0.0543,-0.0346 0.0312,-0.0625 l -7.96875,-9.65625 c -0.0231,-0.0279 -0.0837,-0.0625 -0.125,-0.0625 l -29.15625,0 z m 36.46875,0 c -0.0413,0 -0.0543,0.0346 -0.0312,0.0625 l 8,9.65625 c 0.0231,0.0279 0.0837,0.0625 0.125,0.0625 -0.0413,0 -0.10191,0.003 -0.125,0.0312 l -8,9.6875 c -0.0115,0.014 -0.006,0.0222 0,0.0312 0.006,0.009 0.0106,0 0.0312,0 l 29.15625,0 c 0.0413,0 0.10192,-0.003 0.125,-0.0312 l 7.96875,-9.6875 c 0.0115,-0.014 0.006,-0.0269 0,-0.0312 0.02,-0.011 0.0173,-0.0416 0,-0.0625 L 338.536,312.3681 c -0.0231,-0.0279 -0.0837,-0.0625 -0.125,-0.0625 l -29.15625,0 z m 36.4375,0 c -0.0413,0 -0.0543,0.0346 -0.0312,0.0625 l 8,9.65625 c 0.0231,0.0279 0.0837,0.0625 0.125,0.0625 -0.0413,0 -0.10191,0.003 -0.125,0.0312 l -8,9.6875 c -0.0115,0.014 -0.006,0.0222 0,0.0312 0.006,0.009 0.0106,0 0.0312,0 l 29.15625,0 c 0.0413,0 0.10192,-0.003 0.125,-0.0312 l 7.96875,-9.6875 c 0.0115,-0.014 0.006,-0.0269 0,-0.0312 0.02,-0.011 0.0173,-0.0416 0,-0.0625 l -7.96875,-9.65625 c -0.0231,-0.0279 -0.0837,-0.0625 -0.125,-0.0625 l -29.15625,0 z m 36.4375,0 c -0.0413,0 -0.0543,0.0346 -0.0312,0.0625 l 8,9.65625 c 0.0231,0.0279 0.0837,0.0625 0.125,0.0625 -0.0413,0 -0.10191,0.003 -0.125,0.0312 l -8,9.6875 c -0.0115,0.014 -0.006,0.0222 0,0.0312 0.006,0.009 0.0106,0 0.0312,0 l 29.15625,0 c 0.0413,0 0.10192,-0.003 0.125,-0.0312 l 7.96875,-9.6875 c 0.0115,-0.014 0.006,-0.0269 0,-0.0312 0.02,-0.011 0.0173,-0.0416 0,-0.0625 L 411.411,312.3681 c -0.0231,-0.0279 -0.0837,-0.0625 -0.125,-0.0625 l -29.15625,0 z m 36.4375,0 c -0.0413,0 -0.0543,0.0346 -0.0312,0.0625 l 8,9.65625 c 0.0231,0.0279 0.0837,0.0625 0.125,0.0625 -0.0413,0 -0.10191,0.003 -0.125,0.0312 l -8,9.6875 c -0.0115,0.014 -0.006,0.0222 0,0.0312 0.006,0.009 0.0106,0 0.0312,0 l 29.15625,0 c 0.0413,0 0.10192,-0.003 0.125,-0.0312 l 7.96875,-9.6875 c 0.0115,-0.014 0.006,-0.0269 0,-0.0312 0.02,-0.011 0.0173,-0.0416 0,-0.0625 l -7.96875,-9.65625 c -0.0231,-0.0279 -0.0837,-0.0625 -0.125,-0.0625 l -29.15625,0 z m 36.4375,0 c -0.0413,0 -0.0543,0.0346 -0.0312,0.0625 l 8,9.65625 c 0.0231,0.0279 0.0837,0.0625 0.125,0.0625 -0.0413,0 -0.10191,0.003 -0.125,0.0312 l -8,9.6875 c -0.0115,0.014 -0.006,0.0222 0,0.0312 0.006,0.009 0.0106,0 0.0312,0 l 29.15625,0 c 0.0413,0 0.10192,-0.003 0.125,-0.0312 l 7.96875,-9.6875 c 0.0231,-0.0279 0.01,-0.0312 -0.0312,-0.0312 0.0413,0 0.0543,-0.0346 0.0312,-0.0625 L 484.286,312.3681 c -0.0231,-0.0279 -0.0837,-0.0625 -0.125,-0.0625 l -29.15625,0 z m 36.4375,0 c -0.0413,0 -0.0543,0.0346 -0.0312,0.0625 l 8,9.65625 c 0.0231,0.0279 0.0837,0.0625 0.125,0.0625 -0.0413,0 -0.10191,0.003 -0.125,0.0312 l -8,9.6875 c -0.0115,0.014 -0.006,0.0222 0,0.0312 0.006,0.009 0.0106,0 0.0312,0 l 29.15625,0 c 0.0413,0 0.10192,-0.003 0.125,-0.0312 l 7.96875,-9.6875 c 0.0231,-0.0279 0.01,-0.0312 -0.0312,-0.0312 0.0413,0 0.0543,-0.0346 0.0312,-0.0625 l -7.96875,-9.65625 c -0.0231,-0.0279 -0.0837,-0.0625 -0.125,-0.0625 l -29.15625,0 z m 36.46875,0 c -0.0413,0 -0.0543,0.0346 -0.0312,0.0625 l 8,9.65625 c 0.0231,0.0279 0.0837,0.0625 0.125,0.0625 -0.0413,0 -0.10191,0.003 -0.125,0.0312 l -8,9.6875 c -0.0115,0.014 -0.006,0.0222 0,0.0312 0.006,0.009 0.0107,0 0.0312,0 l 29.15625,0 c 0.0413,0 0.10192,-0.003 0.125,-0.0312 l 7.96875,-9.6875 c 0.0116,-0.014 0.006,-0.0269 0,-0.0312 0.02,-0.011 0.0173,-0.0416 0,-0.0625 l -7.96875,-9.65625 c -0.0231,-0.0279 -0.0837,-0.0625 -0.125,-0.0625 l -29.15625,0 z"
       style="opacity:0.51000001;fill:#000000;fill-opacity:1;fill-rule:nonzero;stroke:none" />
    <path
       inkscape:connector-curvature="0"
       style="opacity:0.51000001;fill:#000000;fill-opacity:1;fill-rule:nonzero;stroke:none"
       d="m 753.8188,36.775605 0,97.843745 -140,0 c -30.0911,0 -54.3125,-19.17441 -54.3125,-42.999995 l 0,-11.84375 c 0,-23.82559 24.2214,-43 54.3125,-43 l 140,0 z m -1.9063,1.96875 -134.375,0 c -28.8828,0 -52.125,18.41229 -52.125,41.28125 l 0,11.34375 c 0,22.868955 23.2422,41.281245 52.125,41.281245 l 134.375,0 0,-93.906245 z"
       id="path5697" />
    <path
       style="opacity:0.51000001;fill:#000000;fill-opacity:1;fill-rule:nonzero;stroke:none"
       d="m 54.129755,76.052865 c -0.0413,0 -0.05435,0.0346 -0.03125,0.0625 l 8,9.65625 c 0.0231,0.0279 0.0837,0.0625 0.125,0.0625 -0.0413,0 -0.10191,0.003 -0.125,0.0312 l -8,9.6875 c -0.0115,0.014 -0.006,0.0222 0,0.0312 0.006,0.009 0.01065,0 0.03125,0 l 29.156247,0 c 0.0413,0 0.10192,-0.003 0.125,-0.0312 l 7.96875,-9.6875 c 0.0231,-0.0279 0.01,-0.0312 -0.0312,-0.0312 0.0413,0 0.0543,-0.0346 0.0312,-0.0625 l -7.96875,-9.65625 c -0.0231,-0.0279 -0.0837,-0.0625 -0.125,-0.0625 l -29.156247,0 z m 36.437497,0 c -0.0413,0 -0.0543,0.0346 -0.0312,0.0625 l 8,9.65625 c 0.0231,0.0279 0.0837,0.0625 0.125,0.0625 -0.0413,0 -0.10191,0.003 -0.125,0.0312 l -8,9.6875 c -0.0115,0.014 -0.006,0.0222 0,0.0312 0.006,0.009 0.0106,0 0.0312,0 l 29.156248,0 c 0.0413,0 0.10192,-0.003 0.125,-0.0312 l 7.96875,-9.6875 c 0.0231,-0.0279 0.01,-0.0312 -0.0312,-0.0312 0.0413,0 0.0543,-0.0346 0.0312,-0.0625 l -7.96875,-9.65625 c -0.0231,-0.0279 -0.0837,-0.0625 -0.125,-0.0625 l -29.156248,0 z m 36.468748,0 c -0.0413,0 -0.0543,0.0346 -0.0312,0.0625 l 8,9.65625 c 0.0231,0.0279 0.0837,0.0625 0.125,0.0625 -0.0413,0 -0.10191,0.003 -0.125,0.0312 l -8,9.6875 c -0.0115,0.014 -0.006,0.0222 0,0.0312 0.006,0.009 0.0106,0 0.0312,0 l 29.15625,0 c 0.0413,0 0.10192,-0.003 0.125,-0.0312 l 7.96875,-9.6875 c 0.0115,-0.014 0.006,-0.0269 0,-0.0312 0.02,-0.011 0.0173,-0.0416 0,-0.0625 l -7.96875,-9.65625 c -0.0231,-0.0279 -0.0837,-0.0625 -0.125,-0.0625 l -29.15625,0 z m 36.4375,0 c -0.0413,0 -0.0543,0.0346 -0.0312,0.0625 l 8,9.65625 c 0.0231,0.0279 0.0837,0.0625 0.125,0.0625 -0.0413,0 -0.10191,0.003 -0.125,0.0312 l -8,9.6875 c -0.0115,0.014 -0.006,0.0222 0,0.0312 0.006,0.009 0.0106,0 0.0312,0 l 29.15625,0 c 0.0413,0 0.10192,-0.003 0.125,-0.0312 l 7.96875,-9.6875 c 0.0115,-0.014 0.006,-0.0269 0,-0.0312 0.02,-0.011 0.0173,-0.0416 0,-0.0625 l -7.96875,-9.65625 c -0.0231,-0.0279 -0.0837,-0.0625 -0.125,-0.0625 l -29.15625,0 z m 36.4375,0 c -0.0413,0 -0.0543,0.0346 -0.0312,0.0625 l 8,9.65625 c 0.0231,0.0279 0.0837,0.0625 0.125,0.0625 -0.0413,0 -0.10191,0.003 -0.125,0.0312 l -8,9.6875 c -0.0115,0.014 -0.006,0.0222 0,0.0312 0.006,0.009 0.0106,0 0.0312,0 l 29.15625,0 c 0.0413,0 0.10192,-0.003 0.125,-0.0312 l 7.96875,-9.6875 c 0.0115,-0.014 0.006,-0.0269 0,-0.0312 0.02,-0.011 0.0173,-0.0416 0,-0.0625 l -7.96875,-9.65625 c -0.0231,-0.0279 -0.0837,-0.0625 -0.125,-0.0625 l -29.15625,0 z m 36.4375,0 c -0.0413,0 -0.0543,0.0346 -0.0312,0.0625 l 8,9.65625 c 0.0231,0.0279 0.0837,0.0625 0.125,0.0625 -0.0413,0 -0.10191,0.003 -0.125,0.0312 l -8,9.6875 c -0.0115,0.014 -0.006,0.0222 0,0.0312 0.006,0.009 0.0106,0 0.0312,0 l 29.15625,0 c 0.0413,0 0.10192,-0.003 0.125,-0.0312 l 7.96875,-9.6875 c 0.0115,-0.014 0.006,-0.0269 0,-0.0312 0.02,-0.011 0.0173,-0.0416 0,-0.0625 l -7.96875,-9.65625 c -0.0231,-0.0279 -0.0837,-0.0625 -0.125,-0.0625 l -29.15625,0 z m 36.4375,0 c -0.0413,0 -0.0543,0.0346 -0.0312,0.0625 l 8,9.65625 c 0.0231,0.0279 0.0837,0.0625 0.125,0.0625 -0.0413,0 -0.10191,0.003 -0.125,0.0312 l -8,9.6875 c -0.0115,0.014 -0.006,0.0222 0,0.0312 0.006,0.009 0.0106,0 0.0312,0 l 29.15625,0 c 0.0413,0 0.10192,-0.003 0.125,-0.0312 l 7.96875,-9.6875 c 0.0231,-0.0279 0.01,-0.0312 -0.0312,-0.0312 0.0413,0 0.0543,-0.0346 0.0312,-0.0625 l -7.96875,-9.65625 c -0.0231,-0.0279 -0.0837,-0.0625 -0.125,-0.0625 l -29.15625,0 z m 36.46875,0 c -0.0413,0 -0.0543,0.0346 -0.0312,0.0625 l 8,9.65625 c 0.0231,0.0279 0.0837,0.0625 0.125,0.0625 -0.0413,0 -0.10191,0.003 -0.125,0.0312 l -8,9.6875 c -0.0115,0.014 -0.006,0.0222 0,0.0312 0.006,0.009 0.0106,0 0.0312,0 l 29.15625,0 c 0.0413,0 0.10192,-0.003 0.125,-0.0312 l 7.96875,-9.6875 c 0.0115,-0.014 0.006,-0.0269 0,-0.0312 0.02,-0.011 0.0173,-0.0416 0,-0.0625 l -7.96875,-9.65625 c -0.0231,-0.0279 -0.0837,-0.0625 -0.125,-0.0625 l -29.15625,0 z m 36.4375,0 c -0.0413,0 -0.0543,0.0346 -0.0312,0.0625 l 8,9.65625 c 0.0231,0.0279 0.0837,0.0625 0.125,0.0625 -0.0413,0 -0.10191,0.003 -0.125,0.0312 l -8,9.6875 c -0.0115,0.014 -0.006,0.0222 0,0.0312 0.006,0.009 0.0106,0 0.0312,0 l 29.15625,0 c 0.0413,0 0.10192,-0.003 0.125,-0.0312 l 7.96875,-9.6875 c 0.0115,-0.014 0.006,-0.0269 0,-0.0312 0.02,-0.011 0.0173,-0.0416 0,-0.0625 l -7.96875,-9.65625 c -0.0231,-0.0279 -0.0837,-0.0625 -0.125,-0.0625 l -29.15625,0 z m 36.4375,0 c -0.0413,0 -0.0543,0.0346 -0.0312,0.0625 l 8,9.65625 c 0.0231,0.0279 0.0837,0.0625 0.125,0.0625 -0.0413,0 -0.10191,0.003 -0.125,0.0312 l -8,9.6875 c -0.0115,0.014 -0.006,0.0222 0,0.0312 0.006,0.009 0.0106,0 0.0312,0 l 29.15625,0 c 0.0413,0 0.10192,-0.003 0.125,-0.0312 l 7.96875,-9.6875 c 0.0115,-0.014 0.006,-0.0269 0,-0.0312 0.02,-0.011 0.0173,-0.0416 0,-0.0625 l -7.96875,-9.65625 c -0.0231,-0.0279 -0.0837,-0.0625 -0.125,-0.0625 l -29.15625,0 z m 36.4375,0 c -0.0413,0 -0.0543,0.0346 -0.0312,0.0625 l 8,9.65625 c 0.0231,0.0279 0.0837,0.0625 0.125,0.0625 -0.0413,0 -0.10191,0.003 -0.125,0.0312 l -8,9.6875 c -0.0115,0.014 -0.006,0.0222 0,0.0312 0.006,0.009 0.0106,0 0.0312,0 l 29.15625,0 c 0.0413,0 0.10192,-0.003 0.125,-0.0312 l 7.96875,-9.6875 c 0.0115,-0.014 0.006,-0.0269 0,-0.0312 0.02,-0.011 0.0173,-0.0416 0,-0.0625 l -7.96875,-9.65625 c -0.0231,-0.0279 -0.0837,-0.0625 -0.125,-0.0625 l -29.15625,0 z m 36.4375,0 c -0.0413,0 -0.0543,0.0346 -0.0312,0.0625 l 8,9.65625 c 0.0231,0.0279 0.0837,0.0625 0.125,0.0625 -0.0413,0 -0.10191,0.003 -0.125,0.0312 l -8,9.6875 c -0.0115,0.014 -0.006,0.0222 0,0.0312 0.006,0.009 0.0106,0 0.0312,0 l 29.15625,0 c 0.0413,0 0.10192,-0.003 0.125,-0.0312 l 7.96875,-9.6875 c 0.0231,-0.0279 0.01,-0.0312 -0.0312,-0.0312 0.0413,0 0.0543,-0.0346 0.0312,-0.0625 l -7.96875,-9.65625 c -0.0231,-0.0279 -0.0837,-0.0625 -0.125,-0.0625 l -29.15625,0 z m 36.4375,0 c -0.0413,0 -0.0543,0.0346 -0.0312,0.0625 l 8,9.65625 c 0.0231,0.0279 0.0837,0.0625 0.125,0.0625 -0.0413,0 -0.10191,0.003 -0.125,0.0312 l -8,9.6875 c -0.0115,0.014 -0.006,0.0222 0,0.0312 0.006,0.009 0.0106,0 0.0312,0 l 29.15625,0 c 0.0413,0 0.10192,-0.003 0.125,-0.0312 l 7.96875,-9.6875 c 0.0231,-0.0279 0.01,-0.0312 -0.0312,-0.0312 0.0413,0 0.0543,-0.0346 0.0312,-0.0625 l -7.96875,-9.65625 c -0.0231,-0.0279 -0.0837,-0.0625 -0.125,-0.0625 l -29.15625,0 z m 36.46875,0 c -0.0413,0 -0.0543,0.0346 -0.0312,0.0625 l 8,9.65625 c 0.0231,0.0279 0.0837,0.0625 0.125,0.0625 -0.0413,0 -0.10191,0.003 -0.125,0.0312 l -8,9.6875 c -0.0115,0.014 -0.006,0.0222 0,0.0312 0.006,0.009 0.0107,0 0.0312,0 l 29.15625,0 c 0.0413,0 0.10192,-0.003 0.125,-0.0312 l 7.96875,-9.6875 c 0.0116,-0.014 0.006,-0.0269 0,-0.0312 0.02,-0.011 0.0173,-0.0416 0,-0.0625 l -7.96875,-9.65625 c -0.0231,-0.0279 -0.0837,-0.0625 -0.125,-0.0625 l -29.15625,0 z"
       id="path5699"
       inkscape:connector-curvature="0" />
    <path
       id="path5702"
       d="m 336.89773,774.04849 0,97.84375 140,0 c 30.09105,0 54.3125,-19.17441 54.3125,-43 l 0,-11.84375 c 0,-23.82559 -24.22145,-43 -54.3125,-43 l -140,0 z m 1.90625,1.96875 134.375,0 c 28.88284,0 52.125,18.41229 52.125,41.28125 l 0,11.34375 c 0,22.86896 -23.24215,41.28125 -52.125,41.28125 l -134.375,0 0,-93.90625 z"
       style="opacity:0.51000001;fill:#000000;fill-opacity:1;fill-rule:nonzero;stroke:none"
       inkscape:connector-curvature="0" />
  </g>
</svg>
