<?xml version="1.0" encoding="UTF-8" standalone="no"?>
<!-- Created with Inkscape (http://www.inkscape.org/) -->

<svg
   xmlns:dc="http://purl.org/dc/elements/1.1/"
   xmlns:cc="http://creativecommons.org/ns#"
   xmlns:rdf="http://www.w3.org/1999/02/22-rdf-syntax-ns#"
   xmlns:svg="http://www.w3.org/2000/svg"
   xmlns="http://www.w3.org/2000/svg"
   xmlns:sodipodi="http://sodipodi.sourceforge.net/DTD/sodipodi-0.dtd"
   xmlns:inkscape="http://www.inkscape.org/namespaces/inkscape"
   width="520.01532"
   height="375.25919"
   id="svg2"
   version="1.1"
   inkscape:version="0.48.1 "
   sodipodi:docname="Neues Dokument 1">
  <defs
     id="defs4">
    <marker
       inkscape:stockid="EmptyTriangleOutL"
       orient="auto"
       refY="0"
       refX="0"
       id="EmptyTriangleOutL"
       style="overflow:visible">
      <path
         id="path4240"
         d="m 5.77,0 -8.65,5 0,-10 8.65,5 z"
         style="fill:#ffffff;fill-rule:evenodd;stroke:#000000;stroke-width:1pt;marker-start:none"
         transform="matrix(0.8,0,0,0.8,-4.8,0)"
         inkscape:connector-curvature="0" />
    </marker>
    <marker
       inkscape:stockid="EmptyTriangleInL"
       orient="auto"
       refY="0"
       refX="0"
       id="EmptyTriangleInL"
       style="overflow:visible">
      <path
         id="path4231"
         d="m 5.77,0 -8.65,5 0,-10 8.65,5 z"
         style="fill:#ffffff;fill-rule:evenodd;stroke:#000000;stroke-width:1pt;marker-start:none"
         transform="matrix(-0.8,0,0,-0.8,4.8,0)"
         inkscape:connector-curvature="0" />
    </marker>
  </defs>
  <sodipodi:namedview
     id="base"
     pagecolor="#ffffff"
     bordercolor="#666666"
     borderopacity="1.0"
     inkscape:pageopacity="0.0"
     inkscape:pageshadow="2"
     inkscape:zoom="0.7"
     inkscape:cx="395.15185"
     inkscape:cy="211.16528"
     inkscape:document-units="px"
     inkscape:current-layer="layer1"
     showgrid="false"
     inkscape:object-paths="true"
     inkscape:snap-midpoints="true"
     inkscape:object-nodes="true"
     inkscape:snap-intersection-paths="true"
     fit-margin-top="10"
     fit-margin-left="10"
     fit-margin-right="10"
     fit-margin-bottom="10"
     inkscape:window-width="1366"
     inkscape:window-height="716"
     inkscape:window-x="-4"
     inkscape:window-y="-4"
     inkscape:window-maximized="1" />
  <metadata
     id="metadata7">
    <rdf:RDF>
      <cc:Work
         rdf:about="">
        <dc:format>image/svg+xml</dc:format>
        <dc:type
           rdf:resource="http://purl.org/dc/dcmitype/StillImage" />
        <dc:title></dc:title>
      </cc:Work>
    </rdf:RDF>
  </metadata>
  <g
     inkscape:label="Ebene 1"
     inkscape:groupmode="layer"
     id="layer1"
     transform="translate(-36.827853,-140.79689)">
    <g
       id="g3790"
       transform="translate(-9.0913725,-39.764185)">
      <text
         sodipodi:linespacing="125%"
         id="text3773"
         y="444.69098"
         x="66.51004"
         style="font-size:20px;font-style:normal;font-weight:normal;line-height:125%;letter-spacing:0px;word-spacing:0px;fill:#000000;fill-opacity:1;stroke:none;font-family:Sans"
         xml:space="preserve"><tspan
           y="444.69098"
           x="66.51004"
           id="tspan3775"
           sodipodi:role="line">RemoteDatabaseReference</tspan></text>
      <path
         style="fill:none;stroke:#000000;stroke-width:0.99999994;stroke-linecap:butt;stroke-linejoin:round;stroke-miterlimit:4;stroke-opacity:1;stroke-dasharray:none;stroke-dashoffset:0"
         d="m 56.488455,423.02793 c -0.04575,0 -0.06923,0.0522 -0.06923,0.0937 l 0,28.84375 c 0,0.0415 0.02348,0.0625 0.06923,0.0625 l 268.861555,0 c 0.0457,0 0.0692,-0.021 0.0692,-0.0625 l 0,-28.84375 c 0,-0.0416 -0.0235,-0.0937 -0.0692,-0.0937 l -268.861555,0 z"
         id="path3783"
         inkscape:connector-curvature="0" />
    </g>
    <g
       id="g3884"
       transform="translate(31.314728,-18.182746)">
      <text
         xml:space="preserve"
         style="font-size:20px;font-style:normal;font-weight:normal;line-height:125%;letter-spacing:0px;word-spacing:0px;fill:#000000;fill-opacity:1;stroke:none;font-family:Sans"
         x="326.173"
         y="191.1427"
         id="text3767"
         sodipodi:linespacing="125%"><tspan
           sodipodi:role="line"
           id="tspan3769"
           x="326.173"
           y="191.1427">DatabaseReference</tspan></text>
      <path
         inkscape:connector-curvature="0"
         id="path3801"
         d="m 316.07965,169.47964 c -0.0339,0 -0.0512,0.0522 -0.0512,0.0937 l 0,28.84375 c 0,0.0415 0.0174,0.0625 0.0512,0.0625 l 198.89762,0 c 0.0338,0 0.0512,-0.021 0.0512,-0.0625 l 0,-28.84375 c 0,-0.0416 -0.0173,-0.0937 -0.0512,-0.0937 l -198.89762,0 z"
         style="fill:none;stroke:#000000;stroke-width:1;stroke-linecap:butt;stroke-linejoin:round;stroke-miterlimit:4;stroke-opacity:1;stroke-dasharray:none;stroke-dashoffset:0" />
      <path
         style="fill:none;stroke:#000000;stroke-width:1;stroke-linecap:butt;stroke-linejoin:round;stroke-miterlimit:4;stroke-opacity:1;stroke-dasharray:none;stroke-dashoffset:0"
         d="m 316.07965,277.47918 c -0.0339,0 -0.0512,-0.1422 -0.0512,-0.25526 l 0,-78.57447 c 0,-0.11301 0.0174,-0.17027 0.0512,-0.17027 l 198.89762,0 c 0.0338,0 0.0512,0.0572 0.0512,0.17027 l 0,78.57447 c 0,0.11328 -0.0173,0.25526 -0.0512,0.25526 l -198.89762,0 z"
         id="path3822"
         inkscape:connector-curvature="0" />
      <text
         sodipodi:linespacing="125%"
         id="text3824"
         y="218.75067"
         x="326.60269"
         style="font-size:20px;font-style:normal;font-weight:normal;line-height:125%;letter-spacing:0px;word-spacing:0px;fill:#000000;fill-opacity:1;stroke:none;font-family:Sans"
         xml:space="preserve"><tspan
           y="218.75067"
           x="326.60269"
           id="tspan3826"
           sodipodi:role="line">+ process</tspan><tspan
           id="tspan3828"
           y="243.75067"
           x="326.60269"
           sodipodi:role="line">+ id</tspan><tspan
           id="tspan3847"
           y="268.75067"
           x="326.60269"
           sodipodi:role="line">+ database</tspan></text>
    </g>
    <g
       id="g3839"
       transform="translate(8.0812205,-30.304599)">
      <path
         inkscape:connector-curvature="0"
         id="rect2985"
         d="m 39.315862,320.27664 c -0.04575,0 -0.06923,0.0522 -0.06923,0.0937 l 0,28.84375 c 0,0.0415 0.02348,0.0625 0.06923,0.0625 l 268.861558,0 c 0.0457,0 0.0692,-0.021 0.0692,-0.0625 l 0,-28.84375 c 0,-0.0416 -0.0235,-0.0937 -0.0692,-0.0937 l -268.861558,0 z"
         style="fill:none;stroke:#000000;stroke-width:0.99999994;stroke-linecap:butt;stroke-linejoin:round;stroke-miterlimit:4;stroke-opacity:1;stroke-dasharray:none;stroke-dashoffset:0" />
      <text
         sodipodi:linespacing="125%"
         id="text3759"
         y="341.9397"
         x="60.50444"
         style="font-size:20px;font-style:normal;font-weight:normal;line-height:125%;letter-spacing:0px;word-spacing:0px;fill:#000000;fill-opacity:1;stroke:none;font-family:Sans"
         xml:space="preserve"><tspan
           y="341.9397"
           x="60.50444"
           id="tspan3761"
           sodipodi:role="line">LocalDatabaseReference</tspan></text>
      <path
         style="fill:none;stroke:#000000;stroke-width:0.99999994;stroke-linecap:butt;stroke-linejoin:round;stroke-miterlimit:4;stroke-opacity:1;stroke-dasharray:none;stroke-dashoffset:0"
         d="m 39.315862,349.27623 c -0.04575,0 -0.06923,0.0522 -0.06923,0.0937 l 0,28.84375 c 0,0.0415 0.02348,0.0625 0.06923,0.0625 l 268.861558,0 c 0.0457,0 0.0692,-0.021 0.0692,-0.0625 l 0,-28.84375 c 0,-0.0416 -0.0235,-0.0937 -0.0692,-0.0937 l -268.861558,0 z"
         id="path3833"
         inkscape:connector-curvature="0" />
      <text
         sodipodi:linespacing="125%"
         id="text3835"
         y="370.81723"
         x="60.856003"
         style="font-size:20px;font-style:normal;font-weight:normal;line-height:125%;letter-spacing:0px;word-spacing:0px;fill:#000000;fill-opacity:1;stroke:none;font-family:Sans"
         xml:space="preserve"><tspan
           y="370.81723"
           x="60.856003"
           id="tspan3837"
           sodipodi:role="line">+ value</tspan></text>
    </g>
    <g
       id="g3858"
       transform="translate(9.0913735,-40.406089)">
      <text
         sodipodi:linespacing="125%"
         id="text3777"
         y="509.625"
         x="55.36834"
         style="font-size:20px;font-style:normal;font-weight:normal;line-height:125%;letter-spacing:0px;word-spacing:0px;fill:#000000;fill-opacity:1;stroke:none;font-family:Sans"
         xml:space="preserve"><tspan
           y="509.625"
           x="55.36834"
           id="tspan3779"
           sodipodi:role="line">IndirectRemoteDatabaseReference</tspan></text>
      <path
         style="fill:none;stroke:#000000;stroke-width:0.99999994;stroke-linecap:butt;stroke-linejoin:round;stroke-miterlimit:4;stroke-opacity:1;stroke-dasharray:none;stroke-dashoffset:0"
         d="m 38.326299,487.96196 c -0.05936,0 -0.08982,0.0522 -0.08982,0.0937 l 0,28.84375 c 0,0.0415 0.03046,0.0625 0.08982,0.0625 l 348.820431,0 c 0.0593,0 0.0898,-0.021 0.0898,-0.0625 l 0,-28.84375 c 0,-0.0416 -0.0305,-0.0937 -0.0898,-0.0937 l -348.820431,0 z"
         id="path3781"
         inkscape:connector-curvature="0" />
      <path
         inkscape:connector-curvature="0"
         id="path3852"
         d="m 38.326299,516.96223 c -0.05936,0 -0.08982,0.0522 -0.08982,0.0937 l 0,28.84375 c 0,0.0415 0.03046,0.0625 0.08982,0.0625 l 348.820431,0 c 0.0593,0 0.0898,-0.021 0.0898,-0.0625 l 0,-28.84375 c 0,-0.0416 -0.0305,-0.0937 -0.0898,-0.0937 l -348.820431,0 z"
         style="fill:none;stroke:#000000;stroke-width:0.99999994;stroke-linecap:butt;stroke-linejoin:round;stroke-miterlimit:4;stroke-opacity:1;stroke-dasharray:none;stroke-dashoffset:0" />
      <text
         sodipodi:linespacing="125%"
         id="text3854"
         y="538.62531"
         x="56.120293"
         style="font-size:20px;font-style:normal;font-weight:normal;line-height:125%;letter-spacing:0px;word-spacing:0px;fill:#000000;fill-opacity:1;stroke:none;font-family:Sans"
         xml:space="preserve"><tspan
           y="538.62531"
           x="56.120293"
           id="tspan3856"
           sodipodi:role="line">+ reference</tspan></text>
    </g>
    <path
       style="fill:none;stroke:#000000;stroke-width:1;stroke-linecap:butt;stroke-linejoin:round;stroke-miterlimit:4;stroke-opacity:1;stroke-dashoffset:0"
       d="m 426.99874,279.14118 19.84445,-19.84475 c 0.0294,-0.0294 0.0765,-0.0295 0.10571,-3.5e-4 l 19.84514,19.84513 c 0.0292,0.0292 0.0291,-0.0294 -3.6e-4,-3e-5 -63.66343,0 22.51905,0.12048 -39.79494,0 z"
       id="rect5252"
       inkscape:connector-curvature="0"
       sodipodi:nodetypes="cssscc"
       inkscape:transform-center-x="9.97526" />
    <path
       style="fill:none;stroke:#000000;stroke-width:1px;stroke-linecap:butt;stroke-linejoin:miter;stroke-opacity:1"
       d="m 446.843,279.17646 c 0,21.00787 0,27.41474 0,40.32005 0,8.62215 -73.46396,-0.52462 -130.57888,-0.52462"
       id="path5255"
       inkscape:connector-curvature="0"
       sodipodi:nodetypes="csc" />
    <path
       sodipodi:nodetypes="csc"
       inkscape:connector-curvature="0"
       id="path5257"
       d="m 446.843,311.51687 c 0,21.00787 0.0637,73.88176 0.0637,86.78707 0,8.62215 -73.46396,-0.52462 -130.57888,-0.52462"
       style="fill:none;stroke:#000000;stroke-width:1px;stroke-linecap:butt;stroke-linejoin:miter;stroke-opacity:1" />
    <path
       style="fill:none;stroke:#000000;stroke-width:1px;stroke-linecap:butt;stroke-linejoin:miter;stroke-opacity:1"
       d="m 446.90672,394.20913 c 0,21.00787 0,60.18974 0,73.09505 0,8.62215 2.74803,9.25164 -54.36689,9.25164"
       id="path5259"
       inkscape:connector-curvature="0"
       sodipodi:nodetypes="csc" />
  </g>
</svg>
