<?xml version="1.0" encoding="UTF-8" standalone="no"?>
<!-- Created with Inkscape (http://www.inkscape.org/) -->

<svg
   xmlns:dc="http://purl.org/dc/elements/1.1/"
   xmlns:cc="http://creativecommons.org/ns#"
   xmlns:rdf="http://www.w3.org/1999/02/22-rdf-syntax-ns#"
   xmlns:svg="http://www.w3.org/2000/svg"
   xmlns="http://www.w3.org/2000/svg"
   xmlns:sodipodi="http://sodipodi.sourceforge.net/DTD/sodipodi-0.dtd"
   xmlns:inkscape="http://www.inkscape.org/namespaces/inkscape"
   width="520.01532"
   height="226.6752"
   id="svg2"
   version="1.1"
   inkscape:version="0.48.1 "
   sodipodi:docname="LocalObjectDatabase_reference_class_diagram_local.svg">
  <defs
     id="defs4">
    <marker
       inkscape:stockid="EmptyTriangleOutL"
       orient="auto"
       refY="0"
       refX="0"
       id="EmptyTriangleOutL"
       style="overflow:visible">
      <path
         id="path4240"
         d="m 5.77,0 -8.65,5 0,-10 8.65,5 z"
         style="fill:#ffffff;fill-rule:evenodd;stroke:#000000;stroke-width:1pt;marker-start:none"
         transform="matrix(0.8,0,0,0.8,-4.8,0)"
         inkscape:connector-curvature="0" />
    </marker>
    <marker
       inkscape:stockid="EmptyTriangleInL"
       orient="auto"
       refY="0"
       refX="0"
       id="EmptyTriangleInL"
       style="overflow:visible">
      <path
         id="path4231"
         d="m 5.77,0 -8.65,5 0,-10 8.65,5 z"
         style="fill:#ffffff;fill-rule:evenodd;stroke:#000000;stroke-width:1pt;marker-start:none"
         transform="matrix(-0.8,0,0,-0.8,4.8,0)"
         inkscape:connector-curvature="0" />
    </marker>
  </defs>
  <sodipodi:namedview
     id="base"
     pagecolor="#ffffff"
     bordercolor="#666666"
     borderopacity="1.0"
     inkscape:pageopacity="0.0"
     inkscape:pageshadow="2"
     inkscape:zoom="1.4"
     inkscape:cx="256.95135"
     inkscape:cy="110.76383"
     inkscape:document-units="px"
     inkscape:current-layer="layer1"
     showgrid="false"
     inkscape:object-paths="false"
     inkscape:snap-midpoints="false"
     inkscape:object-nodes="false"
     inkscape:snap-intersection-paths="false"
     fit-margin-top="10"
     fit-margin-left="10"
     fit-margin-right="10"
     fit-margin-bottom="10"
     inkscape:window-width="1366"
     inkscape:window-height="716"
     inkscape:window-x="-4"
     inkscape:window-y="-4"
     inkscape:window-maximized="1" />
  <metadata
     id="metadata7">
    <rdf:RDF>
      <cc:Work
         rdf:about="">
        <dc:format>image/svg+xml</dc:format>
        <dc:type
           rdf:resource="http://purl.org/dc/dcmitype/StillImage" />
        <dc:title></dc:title>
      </cc:Work>
    </rdf:RDF>
  </metadata>
  <g
     inkscape:label="Ebene 1"
     inkscape:groupmode="layer"
     id="layer1"
     transform="translate(-36.827853,-140.79689)">
    <text
       sodipodi:linespacing="125%"
       id="text3767"
       y="172.95996"
       x="357.48773"
       style="font-size:20px;font-style:normal;font-weight:normal;line-height:125%;letter-spacing:0px;word-spacing:0px;fill:#000000;fill-opacity:1;stroke:none;font-family:Sans"
       xml:space="preserve"><tspan
         y="172.95996"
         x="357.48773"
         id="tspan3769"
         sodipodi:role="line">DatabaseReference</tspan></text>
    <path
       style="fill:none;stroke:#000000;stroke-width:1;stroke-linecap:butt;stroke-linejoin:round;stroke-miterlimit:4;stroke-opacity:1;stroke-dasharray:none;stroke-dashoffset:0"
       d="m 347.39438,151.29689 c -0.0339,0 -0.0512,0.0522 -0.0512,0.0937 l 0,28.84375 c 0,0.0415 0.0174,0.0625 0.0512,0.0625 l 198.89762,0 c 0.0338,0 0.0512,-0.021 0.0512,-0.0625 l 0,-28.84375 c 0,-0.0416 -0.0173,-0.0937 -0.0512,-0.0937 l -198.89762,0 z"
       id="path3801"
       inkscape:connector-curvature="0" />
    <path
       inkscape:connector-curvature="0"
       id="path3822"
       d="m 347.39438,209.29609 c -0.0339,0 -0.0512,-0.0522 -0.0512,-0.0937 l 0,-28.84379 c 0,-0.0415 0.0174,-0.0625 0.0512,-0.0625 l 198.89762,0 c 0.0338,0 0.0512,0.021 0.0512,0.0625 l 0,28.84379 c 0,0.0416 -0.0173,0.0937 -0.0512,0.0937 l -198.89762,0 z"
       style="fill:none;stroke:#000000;stroke-width:1;stroke-linecap:butt;stroke-linejoin:round;stroke-miterlimit:4;stroke-opacity:1;stroke-dasharray:none;stroke-dashoffset:0" />
    <text
       xml:space="preserve"
       style="font-size:20px;font-style:normal;font-weight:normal;line-height:125%;letter-spacing:0px;word-spacing:0px;fill:#000000;fill-opacity:1;stroke:none;font-family:Sans"
       x="357.91742"
       y="200.56793"
       id="text3824"
       sodipodi:linespacing="125%"><tspan
         sodipodi:role="line"
         id="tspan3826"
         x="357.91742"
         y="200.56793">+ process</tspan><tspan
         sodipodi:role="line"
         x="357.91742"
         y="225.56793"
         id="tspan3847" /></text>
    <path
       style="fill:none;stroke:#000000;stroke-width:0.99999994;stroke-linecap:butt;stroke-linejoin:round;stroke-miterlimit:4;stroke-opacity:1;stroke-dasharray:none;stroke-dashoffset:0"
       d="m 47.397083,269.97255 c -0.04575,0 -0.06923,0.0522 -0.06923,0.0937 l 0,28.84375 c 0,0.0415 0.02348,0.0625 0.06923,0.0625 l 268.861557,0 c 0.0457,0 0.0692,-0.021 0.0692,-0.0625 l 0,-28.84375 c 0,-0.0416 -0.0235,-0.0937 -0.0692,-0.0937 l -268.861558,0 z"
       id="rect2985"
       inkscape:connector-curvature="0" />
    <text
       xml:space="preserve"
       style="font-size:20px;font-style:normal;font-weight:normal;line-height:125%;letter-spacing:0px;word-spacing:0px;fill:#000000;fill-opacity:1;stroke:none;font-family:Sans"
       x="68.585663"
       y="291.63562"
       id="text3759"
       sodipodi:linespacing="125%"><tspan
         sodipodi:role="line"
         id="tspan3761"
         x="68.585663"
         y="291.63562">LocalDatabaseReference</tspan></text>
    <path
       inkscape:connector-curvature="0"
       id="path3833"
       d="m 47.397083,298.97214 c -0.04575,0 -0.06923,0.0522 -0.06923,0.0937 l 0,28.84375 c 0,0.0415 0.02348,0.0625 0.06923,0.0625 l 268.861557,0 c 0.0457,0 0.0692,-0.021 0.0692,-0.0625 l 0,-28.84375 c 0,-0.0416 -0.0235,-0.0937 -0.0692,-0.0937 l -268.861558,0 z"
       style="fill:none;stroke:#000000;stroke-width:0.99999994;stroke-linecap:butt;stroke-linejoin:round;stroke-miterlimit:4;stroke-opacity:1;stroke-dasharray:none;stroke-dashoffset:0" />
    <text
       xml:space="preserve"
       style="font-size:20px;font-style:normal;font-weight:normal;line-height:125%;letter-spacing:0px;word-spacing:0px;fill:#000000;fill-opacity:1;stroke:none;font-family:Sans"
       x="68.937225"
       y="320.51315"
       id="text3835"
       sodipodi:linespacing="125%"><tspan
         sodipodi:role="line"
         id="tspan3837"
         x="68.937225"
         y="320.51315">+ value</tspan></text>
    <g
       id="g6382"
       transform="translate(0,-19.999476)">
      <path
         inkscape:transform-center-x="9.97526"
         sodipodi:nodetypes="cssscc"
         inkscape:connector-curvature="0"
         id="rect5252"
         d="m 426.99874,279.14118 19.84445,-19.84475 c 0.0294,-0.0294 0.0765,-0.0295 0.10571,-3.5e-4 l 19.84514,19.84513 c 0.0292,0.0292 0.0291,-0.0294 -3.6e-4,-3e-5 -63.66343,0 22.51905,0.12048 -39.79494,0 z"
         style="fill:none;stroke:#000000;stroke-width:1;stroke-linecap:butt;stroke-linejoin:round;stroke-miterlimit:4;stroke-opacity:1;stroke-dashoffset:0" />
      <path
         sodipodi:nodetypes="csc"
         inkscape:connector-curvature="0"
         id="path5255"
         d="m 446.843,279.17646 c 0,21.00787 0,27.41474 0,40.32005 0,8.62215 -73.46396,-0.52462 -130.57888,-0.52462"
         style="fill:none;stroke:#000000;stroke-width:1px;stroke-linecap:butt;stroke-linejoin:miter;stroke-opacity:1" />
    </g>
    <path
       inkscape:connector-curvature="0"
       id="path6394"
       d="m 347.39438,209.29714 c -0.0339,0 -0.0512,0.0522 -0.0512,0.0937 l 0,28.84375 c 0,0.0415 0.0174,0.0625 0.0512,0.0625 l 198.89762,0 c 0.0338,0 0.0512,-0.021 0.0512,-0.0625 l 0,-28.84375 c 0,-0.0416 -0.0173,-0.0937 -0.0512,-0.0937 l -198.89762,0 z"
       style="fill:none;stroke:#000000;stroke-width:1;stroke-linecap:butt;stroke-linejoin:round;stroke-miterlimit:4;stroke-opacity:1;stroke-dasharray:none;stroke-dashoffset:0" />
    <text
       xml:space="preserve"
       style="font-size:20px;font-style:normal;font-weight:normal;line-height:125%;letter-spacing:0px;word-spacing:0px;fill:#000000;fill-opacity:1;stroke:none;font-family:Sans"
       x="357.91742"
       y="228.97311"
       id="text6396"
       sodipodi:linespacing="125%"><tspan
         sodipodi:role="line"
         id="tspan6398"
         x="357.91742"
         y="228.97311">+ isLocal() : bool</tspan></text>
    <path
       style="fill:none;stroke:#000000;stroke-width:0.99999994;stroke-linecap:butt;stroke-linejoin:round;stroke-miterlimit:4;stroke-opacity:1;stroke-dasharray:none;stroke-dashoffset:0"
       d="m 47.397083,327.97214 c -0.04575,0 -0.06923,0.0522 -0.06923,0.0937 l 0,28.84375 c 0,0.0415 0.02348,0.0625 0.06923,0.0625 l 268.861557,0 c 0.0457,0 0.0692,-0.021 0.0692,-0.0625 l 0,-28.84375 c 0,-0.0416 -0.0235,-0.0937 -0.0692,-0.0937 l -268.861558,0 z"
       id="path6406"
       inkscape:connector-curvature="0" />
    <text
       xml:space="preserve"
       style="font-size:20px;font-style:normal;font-weight:normal;line-height:125%;letter-spacing:0px;word-spacing:0px;fill:#000000;fill-opacity:1;stroke:none;font-family:Sans"
       x="68.937225"
       y="347.64792"
       id="text6396-4"
       sodipodi:linespacing="125%"><tspan
         sodipodi:role="line"
         id="tspan6398-6"
         x="68.937225"
         y="347.64792">+ isLocal() : bool</tspan></text>
  </g>
</svg>
